<?xml version="1.0" standalone="no"?>
<!DOCTYPE svg PUBLIC "-//W3C//DTD SVG 20010904//EN"
 "http://www.w3.org/TR/2001/REC-SVG-20010904/DTD/svg10.dtd">
<svg version="1.0" xmlns="http://www.w3.org/2000/svg"
 width="1040.000000pt" height="1040.000000pt" viewBox="0 0 1040.000000 1040.000000"
 preserveAspectRatio="xMidYMid meet">
<metadata>
Created by potrace 1.11, written by Peter Selinger 2001-2013
</metadata>
<g transform="translate(0.000000,1040.000000) scale(0.100000,-0.100000)"
fill="#000000" stroke="none">
<path d="M1227 9993 c-3 -5 -228 -512 -502 -1128 -273 -616 -525 -1183 -560
-1260 -34 -77 -75 -169 -90 -205 -15 -36 -38 -87 -51 -113 l-25 -48 398 -522
c511 -673 1163 -1530 1724 -2267 245 -322 683 -898 974 -1280 291 -382 742
-976 1004 -1320 992 -1304 1092 -1435 1101 -1435 9 0 109 131 1101 1435 262
344 713 938 1004 1320 291 382 729 958 974 1280 560 736 1212 1593 1724 2267
l397 521 -34 74 c-19 40 -64 141 -101 223 -91 206 -371 838 -763 1720 l-329
740 -3971 3 c-2184 1 -3973 -1 -3975 -5z m7387 -910 c12 -24 289 -651 544
-1228 41 -93 101 -231 134 -305 33 -74 66 -148 73 -165 13 -30 12 -31 -269
-400 -155 -203 -511 -671 -791 -1040 -280 -368 -683 -898 -895 -1177 -212
-278 -560 -737 -775 -1019 -214 -283 -548 -721 -740 -974 -193 -253 -426 -560
-519 -683 -93 -122 -172 -222 -176 -222 -4 0 -83 100 -176 223 -93 122 -326
429 -519 682 -192 253 -525 691 -740 974 -214 282 -563 741 -775 1019 -212
279 -615 809 -895 1177 -280 369 -636 837 -791 1040 -281 369 -282 370 -269
400 7 17 40 91 73 165 33 74 93 212 134 305 255 577 532 1204 544 1228 l15 27
3399 0 3399 0 15 -27z"/>
<path d="M6055 7355 c-704 -470 -1284 -860 -1288 -867 -5 -7 10 -136 33 -288
47 -317 174 -1180 260 -1770 92 -630 129 -872 132 -875 3 -4 42 215 230 1280
43 248 106 601 138 785 33 184 64 365 70 401 l12 66 344 429 c190 236 477 593
638 794 161 201 388 483 505 628 187 233 218 274 209 271 -2 0 -579 -385
-1283 -854z"/>
</g>
</svg>
