<svg id="Слой_1" xmlns="http://www.w3.org/2000/svg" viewBox="0 0 120 130"><style>.st0{fill-rule:evenodd;clip-rule:evenodd;fill:#231F20;}</style><path class="st0" d="M67.8 70.6l-.3-.2c0 .1-.5.2-.7.2l.1.4c.4 0 .7-.2.9-.4zM7.9 72.1l-1.9.5c.2 1.1.4 1.9 1.6 2 .9-.7.7-1.5.3-2.5zm-2.1.4l2.2-.7c.5 1.3.7 2.1-.3 3-1.5-.1-1.7-.9-1.9-2.3zM5 75c.3 0 .5-.3.9-.5.1.1.3.4.5.5C7.8 76.6 5 76.3 5 75zm-1-3.8c.2-.2.8-.2 1 0 0 0 .5.7.5 1-.2.8-1.5-.6-1.5-1zm2.1-2c.5-.2 2.2-.8.5 1.5-2.8-1-1.1-1.3-.5-1.5zm2 1.1c.1-.3.5-.5.8-.5.2.4-.2 2.3-.8 1.7-.1-.3 0-1.1 0-1.2zm1 3.4c.4 0 .7.1 1.1 0 .5 1.2-1.9 2.6-1.3.6.1-.1.1-.5.2-.6zm.3 2.3c1 0 2.1-.1 1.9-1-.2-.9-.9-1-.9-1.5.8-1.7 1.6-2.9.1-5.6-.3.7-1.6 2.7-2.1.7.6-.8-.6-.8-.6-1.2.1.4-1 .4-.5 1.2h-.5c.1-1.3-1.1-1.1-1.3-1.6-.1.6-1.2 1-.4 2.1l-.4.3c0-.9-.9-.4-1.1-.7.3.3-.7 1 .2 1.3.6 2-1.6.9-2.2.4.1 3 1.4 3.6 3 4.7.2.4-.4.8 0 1.7.3.9 1.4.4 2.1-.1.1-.4.6-.8 1.1-1 .7-.1 1.3.1 1.6.3zM93 100l4.9-.1.2-4.7c-2.2 0-4.3 2.5-5.1 4.8zm25-43.5c-2.2 2.3-6.7 3.2-10.3 3 2.1-.3 6.8-1.3 8.2-2.7-1.6-.9-4.8-.8-7.5-.9 3.3-.5 6.6-1.3 9.6.6zm-1.4 6.2c-2.4 2.4-5.5 2.3-9.1 1.6 2.1-.1 5.9-.3 7.3-1.5-1.5-1-4.6-1.7-7.3-2 3.4-.1 6.4-.2 9.1 1.9zm-2.1 7c-3.1 1.5-5.3.6-8.5-1.2 2.1.6 5.2 1.3 6.9.5-1.1-1.4-3.1-2.5-5.5-3.6 3.2.9 5.5 1.2 7.1 4.3zm-3.6 5.8c-2.8 1.3-4.9-.3-7.8-2.7 1.9 1 4.8 2.6 6.2 1.7.3-1.3-1.8-3.1-3.9-4.7 3 1.5 5.5 2.9 5.5 5.7zm-8.5-5.9c2.1 1.4 4.7 3.2 5.8 4.2-1.4-.5-3.9-1.9-6.3-3.3l.5-.9zm-1.7-2.3c-.3.8-1.7 1.7-3.6 1.7.2 1 0 2.1-.6 3.6-.7.5-2.2.3-3.7-.3-.1 1-.3 1.7-.9 2.7-1.1.5-2.1 0-3.3-.7-.1 1.2-1.2 1.9-1.9 2.7-1.9-.1-2.5-.7-3.2-1.7-.2.6-.5 1.4-2 2.2-1.7-.4-2.3-.9-3-2.1-1 1.7-1.8 2.1-3.3 1.9v-.5c1.3.4 2.6-.8 3.6-3.2.3 1.7.7 2.7 2.6 3.3 1-.4 1.8-1 1.8-3.5.6 2 1.5 2.8 3.2 3 2-1.6 1.6-2.6 1.1-4.5 1 1.7 1.5 2.7 3.9 2.6 1.2-1.7.6-2.8-.1-4.7 1.4 2.2 2.2 2.8 4.6 2.3 1-2.6.4-3.5-.8-4.7 1.9 1.1 2.9 1.6 4.9-.3-.1-1.9-.7-2.7-3-3.4 2.1.6 3.4.8 4.9-1.2-.6-2.2-1.5-2.6-3.8-2.7 2.4.2 3.8-.1 5.3-2.2-1.8-3.2-2.7-2.8-4.8-2.5 3.1-.7 4.2-1.5 4.7-4.2-2.4-1.9-3.7-1-6.2.2 3.7-2.2 5.5-4.5 5.3-6.2-2.1-1.3-5.8 1.4-7.4 2.5 5.8-4.2 5.3-7.8 5.2-10.6 1.1 3.4.3 5.2-1 7.4.7-.3 3.4-.5 3.9.2.6.8-.3 3.1-2.2 4.8.8-.2 2.8.7 3.1 1.5.3.7-.7 2.6-1.9 4 .6.6 1.5 1.4 2 2.7-.3 1.3-1.5 2.2-2.6 2.7.5.5.8 1.6 1 2.6-.2.5-.7 1.3-2.4 2.1.2.3.6 1.5.6 2.5zm3.2 10.9c-1.2-.9-3.4-2.8-5.3-4.8l.8-.6c1.7 2 3.7 4.2 4.5 5.4zm2.1 2.2c-3 .6-3.9-1.7-6.3-4.6 1.6 1.4 3.5 3.9 5.1 3.3.5-1.3-1.1-3.2-2.7-5.3 2.6 2.1 4.4 3.9 3.9 6.6zm-7.9 1c-.8-1.2-2.4-3-3.6-5.5l1-.4c1 2.4 2.3 4.5 2.6 5.9zm1.5 2.7c-3.1-.3-3.8-2.4-5.2-6 1.1 1.9 2.8 4.5 4.4 4.4.9-1 .2-3.3-.8-5.7 1.7 2.8 2.9 4.9 1.6 7.3zm-9.8-6.4l1-.1c.3 2.5 1 4.1.9 5.5-.5-1.4-1.5-2.7-1.9-5.4zm2.7 8.1c-2.9-1-3.2-2.9-3.6-6.6.6 2 1.6 4.9 3.2 5.2 1.2-.8.7-3.2.4-5.8 1 3.2 1.9 5.2 0 7.2zM84.3 78l1 .2c-.2 2.5-.4 3.2-.7 4.6-.3-1.5-.3-2-.3-4.8zm.6 7.4c-3-1.6-2.4-2.7-2-6.5.2 2.2-.1 3.7 1.9 5 1.7-1 1.5-2.2 1.7-4.8.4 3.3 1.1 4.4-1.6 6.3zm-7.5-14.1s-.9 3.1-1 3.5c0 .4-.6.3-.5-.1 0-.4.8-3.1 1-3.6.1-.4.6-.1.5.2zm4 3.1c0 .4-.5.5-.5.1s0-3.2-.1-3.6c0-.5.5-.4.5 0 0 0 .1 3.2.1 3.5zm4-.4c-.1-.4-.8-3.1-.9-3.5-.2-.5.4-.5.5-.2 0 0 .7 3.2.8 3.5.1.4-.3.6-.4.2zm4.6-1.6c-.2-.3-1.4-2.6-1.6-2.9-.3-.3.2-.6.4-.3 0 0 1.4 2.6 1.7 3 .2.2-.3.5-.5.2zm-.1-8.7c.2.5-2.3-1-2.2-1.2.2-.9 2.1.7 2.2 1.2zm1.4-5.1c.4.3-2.8.4-2.9.2-.3-.6 2.4-.4 2.9-.2zm-3.5-3.3c-.4-.6 2-1.1 2.4-.9.4.2-2.3 1.1-2.4.9zm-12.1 12c.2-.7 1.3-2.1 1.3-2.1-.5.8-1.2 2.3-.8 2.8.5.6 1 1.7 1 1.6 0 0 1.2-.5 1.9-.7.7-.2 1.1-1.8 1.2-2.9 0 1 0 2.6.7 3 .6.3 1.7 1 1.7 1-.1 0 .8-.9 1.3-1.3.6-.5.3-2 0-3.1.4.9 1.1 2.4 1.7 2.4.7 0 2 .3 2 .3l.6-1.8c.3-.6-.6-1.9-1.3-2.8.7.7 2 2.1 2.7 1.8.8-.2 2.2-.5 2.2-.4v-2.2c.1-.8-1.4-1.8-2.6-2.4 1 .2 2.8.4 3.3-.2.5-.7 1.4-1.8 1.4-1.7 0 0-.9-1-1.4-1.7-.4-.7-2.3-.5-3.3-.2 1.1-.3 3-.9 3-1.7.1-.8.5-2.2.5-2.2 0 .1-1.3-.5-2-.9s-2.3.6-3.1 1.3c3.3-2.5 6-6.5 6.3-10.3l.1.2c-.3 3.2-1.4 5.9-3.4 8 .3.1 1 .3 1.1.4.1.1 2 .9 2 .9 0-.1-.5 1.3-.6 2.1-.1.9-.4 1.2-1.1 1.6.8-.1 1.1.2 1.5.9.4.7 1.4 1.8 1.4 1.7 0 0-1.1.9-1.6 1.6-.5.7-.9.8-1.6.8.7.7.9.9.8 1.8v2.5c.1 0-1.3 0-2 .3-.7.2-.9.4-1.7-.1.3.6.2.9-.1 1.5-.5.7-.8 1.9-.8 1.9.1 0-1.1-.5-1.9-.5-.7 0-1.1-.1-1.4-.6.1.8-.4 1-.8 1.4-.5.4-1.3 1.4-1.2 1.4 0 0-1-.9-1.6-1-.6-.2-.8-.4-.9-1.1-.2.7-.8.9-1.4 1.1-.6.1-1.7.7-1.7.8 0 0-.5-1.2-1-1.7-.4-.3-.6-.8-.4-1.5zm.4-9.6c1-.2 2.4-1 3-1.4.6 1.2-.5 3.7-3 3.9 1.1-.6 2.1-1.2 2.4-3-.6.4-1.8.7-2.4.5zm2.2 8c.7 0-.1 2.1-.4 2.4-.5.3.1-2.4.4-2.4zm3.6.3c.6-.3.9 1.9.7 2.3-.2.4-.9-2.2-.7-2.3zm3.6-1.3c.5-.5 1.5 1.5 1.4 1.9-.1.5-1.6-1.7-1.4-1.9zm0-11.5c-.6-.4-.2-.6 0-.9.2-.3 4.3-4.6 5.1-4.8-1.1.8-4.5 5-4.5 5.1.1.1 0 1-.6.6zm9.6.6c-.4.2-.5-.4-.1-.5 0 0 3.1-.9 3.4-1.1.4-.1.6.4.2.5-.3.1-3.1.9-3.5 1.1zm.1 3.4h3.6c.4 0 .5.5.1.5s-3.3 0-3.7.1c-.5 0-.4-.6 0-.6zm-.7 4.2c-.5 0-.3-.6.1-.5 0 0 3.2.5 3.6.5.4 0 .4.6 0 .5-.4 0-3.2-.4-3.7-.5zm-.7 8.4c-.2-.2-2.4-2.5-2.8-2.8-.3-.3.2-.6.4-.4 0 0 2.4 2.5 2.7 2.8.3.3 0 .7-.3.4zm-.6-5.3c-.5-.1-.1-.6.3-.5 0 0 2.8 1.5 3.2 1.6.4.2.2.7-.2.5-.3-.1-2.8-1.4-3.3-1.6zm.9-14.9s3.6-2 3.9-2.2c.3-.2.7.1.3.4-.3.2-3.6 2-3.9 2.2-.4.2-.6-.2-.3-.4zm.7-5.2c1.1-.8 3.4-3.4 4.1-4.9-.2 2.1-3.3 5.1-3.7 5.4-.6.4-.9 0-.4-.5zm13.3-13.5c-.3 1.3-4.1 6-6.1 8l-.4-.9c1.7-1.3 5.9-5.9 6.5-7.1zm3.6-8.4c1.9 5.9-4.4 12.3-7.4 15.2 2.4-3 6.5-8.2 6.5-11.8-.9 2-6.5 7.5-8.4 8.9 3.7-3.9 9-11.4 9.3-12.3zm-.6 15.4c-.4 1.2-5.2 4.7-7.5 6.3l-.2-1c1.9-.9 6.9-4.3 7.7-5.3zm4-5.5c.3 5.7-5.9 9.3-9.3 11.3 2.9-2.1 6.6-5.2 7.6-8.5-1.3 1.6-6.7 4.7-8.8 5.5 4.4-2.7 9.9-7.6 10.5-8.3zm1.4 9c-.9 3.1-5.5 6.2-8.9 7.6 1.8-1.2 6.3-4.5 6.9-6.3-1.8 0-5.7 1.6-8.1 2.7 2.7-2 6.6-4.4 10.1-4zm-11 16c2.6-.2 6.8-.4 8.3-.3-1.4.5-5.4 1-8.2 1.4l-.1-1.1zm-.4-4.8c2.1-.4 7.8-1.9 9-2.2-1.2.8-6.1 2.5-8.8 3.2l-.2-1zm-.1 9.2c2.6.4 6.2.7 7.6 1.1-1.5.2-5 .2-7.8-.1l.2-1zm-.6-13.7c2-.6 6.9-3.3 7.8-4.2-.7 1.1-5.1 4-7.6 5.2l-.2-1zm6.8 20.6c-1.5-.3-4.9-1.1-7.5-2.1l.4-.9c2.4 1 5.8 2.3 7.1 3zm7.2-20.2c-1.4 2.9-6.7 4.9-10.1 5.9 2-.9 7.2-3.2 8-4.9-1.8-.3-5.9.7-8.4 1.5 2.9-1.6 7.1-3.5 10.5-2.5zM77.3 91.3c0-.3-.1-.6-1.5-1.6.9-.5 2.1-.2 4.3.8-.7-1.3-3.2-2-4-2.4 5.5 1.2 6 3.3 6.7 5.3-.6-.7-2-1.8-4.4-2.5.5.6.6 1.3.7 2.2-1-.6-2.9-.9-5.2-1.5.7-.6 1.9-.7 3.4-.3zm6.6 1.3c.8 1.7.6 4.2.4 5.1-.5-.5-1.5-1.7-1.9-1.8-.3.8-.6 1.7-1.2 2.4-.1-.6-.6-2.6-1.2-3.7.1.1 1 1.3 1.4 2 .3-.6.4-1.2.4-2 .9.4 1.2.9 1.9 1.7.3-.5.3-2.5.2-3.7zm3.1 7.6c-1.8.1-2.7-.6-3.9-1.7-.5 1.1-.8 3.1-.5 3.8-1.1-.8-1.8-1.5-2.3-2.5-1 1.6-1.7 2.6-2.1 3.8-.5-1.6-.5-3.4-.6-3.9-.4 1.6-.7 3-1.4 3.7-.9-1.2-.7-3.1-.9-3.5-.7 2.2-1.1 2.4-3.4 2.1 2.4-1.3 2.6-3.6 1.1-6 1.3 1.5 1.7 2.7 1.7 3.6.7-.8.9-1.4 1.1-1.7.1 1.5.2 2.4.5 2.7.7-.8 1-1.9 1.2-2.6.5.6 1.1 2.2 1 3.1.5-1 1.6-1.8 2-2 .5 1 1 1.7 1.3 1.8.3-1.7.6-2.9 1-3.6.9 1.2 2 1.9 2.5 1.8-.9-1.2 2.3-7.1-2.6-8.7 6.4.8 1.5 9.2 4.3 9.8zm-12.2 6.1c-.5-.4-.2-1.5.3-2 .4.1.4.8.3 1.3.4.1 2.3.6 3.1.9-.5.2-2.9 0-3.7-.2zm-6.1-11.7c1.9-.8 7.2 0 9.5 1.1-.5-1.4-2.3-2.1-5.2-3.7 4.9 1 6.9 2.9 6.8 5.4-2.1-2-8.4-3.2-11.1-2.8zm5.6-.9c-4.5-1-6.5.4-8.1 1.4 3.7-3.6 4.9-2.5 8.1-1.4zm-11.8 4.5c.9-1.7 2.5-4 3.2-5.9h.8c-.5 1.3-1.7 3.8-4 5.9zm4.1 6.4c-2.9.1-3.8-2.1-4.1-3.5 0 .1 1 1.4 1.6 1.7-.3-.2-.5-2.6-.1-3.8-.5 2.3 1.9 5.4 2.6 5.6zm3 14.8l.8.3-.1 1.3-.8.1c.3-.9.1-1.2.1-1.7zm5.6 1.7c-.1-1.8-.1-5.7-5.6-10.6 1.7 1.1 7.6 6.5 8.4 7.1-1.5-.6-2.2-.9-2.6-.6.6 1.6.6 3.5-.2 4.1zm-3.9-7.8c.9.8-.1 3-1.4 4.1.7.8 2 1.1 3.7.4 1.3 4.4-1.5 4.4-3.3 4.8.2 0 .3.1 2.4 1.4 2.1 1.3 3.8-1.7 4.4-5.2.5-.3 1.7.1 2.7 1.3.9-1.5-.4-2.9-2.2-4.2.9-.3 1.8-1.1 2.2-2.4-.5.2-1.6.7-3.5.2-1.9-.5-5.3-3.4-7-4.6 1 0 3 1.2 5.7 3.2s4.4.3 4.8-1c1.9 1.3 1.5 3-.6 4.5 3.5 2.4 1.9 5.7 1.2 7.3-.2-.6-1.4-2.3-2.1-2.9-1.2 4.5-3 5.1-4.8 5.3-1.8.2-1.9-2.9-5.8-1.1-.8-3.8 6.2-2.2 5.4-5.2-2.1.6-3.4-.4-4.8-2.2 1 .4 3.3-2.2 2.1-3.8-1.2-1.6-6.4-6-7.6-8.3.1.6 7.5 7.5 8.5 8.4zm-9.6 10.5c.4-.7.4-3.6.5-4.7.4.8 1 3.5.7 4.5l-1.2.2zm-1.3.4c3.5 1.3 4.5-1.9 3.9-4.3-.6-2.5-3.2-9.6-3.7-13.2.1.1 3.6 10.4 4.6 13.4.9 3-.5 4.7-2.3 5.7 1.5 1.5 3.8.4 5.5-1.3l.9.1c-4.4 5.2-7.6 1.8-8.9-.4zm-1.6 5c-1.1-.6-2.5-2.5-2.4-2.5l.5-.9c.4.7 1.2 1.7 1.9 2.1.6-.5 1.5-1.4 1.9-2.1l.6.9s-1.5 1.9-2.5 2.5zm-2.9-5.8l-1.1-.2c-.3-.9.4-3.7.8-4.5-.1 1.1-.1 3.9.3 4.7zm-7.6.5l.9-.1c1.7 1.7 4 2.8 5.6 1.5-1.8-1-3.2-2.8-2.2-5.8 1-2.9 4.8-13.1 4.9-13.2-.6 3.6-3.4 10.7-4 13-.7 2.4.2 5.9 3.7 4.7-1.3 2.2-4.6 5.3-8.9-.1zm-.1-3.4l-.8-.1-.1-1.3.8-.3c0 .5-.1.8.1 1.7zm-8.2-3.7c.9-.6 6.7-5.8 8.3-6.9-5.4 4.8-5.4 8.7-5.6 10.5-.7-.7-.6-2.6-.1-4.2-.5-.3-1.1 0-2.6.6zm4.5 8c-1.9-.2-3.6-.8-4.6-5.4-.9.5-2 2.3-2.2 2.8-.6-1.5-2.2-4.9 1.3-7.2-1.9-1.6-2.4-3.3-.4-4.6.3 1.3 2 3.1 4.7 1.1 2.8-1.9 4.5-3 5.5-3-1.8 1.2-5 4-6.9 4.4-1.9.5-3-.1-3.5-.3.4 1.4 1.2 2.2 2.1 2.5-1.8 1.2-3.2 2.7-2.2 4.1 1-1.1 2.2-1.5 2.7-1.2.7 3.5 2.2 6.5 4.3 5.3 1.8-1.3 1.9-1.3 2.1-1.3-1.5-.3-4.3-.4-3-4.9 1.7.8 2.7.4 3.5-.3-1.2-1.2-1.9-3.3-1.2-4.2 1-.9 8.6-7.5 8.9-8.1-1.2 2.3-6.6 6.5-7.8 8.1-1.3 1.6.9 4.2 1.9 3.8-1.4 1.7-2.7 2.7-4.6 2.1-.9 2.9 5.9 1.5 5 5.3-3.9-1.9-3.9 1.2-5.6 1zm7.1-20.7c.7-.2 3.2-3.2 2.7-5.5.4 1.2.1 3.6-.1 3.8.6-.3 1.6-1.6 1.6-1.7-.4 1.4-1.3 3.5-4.2 3.4zm.3-12.5l.8.1c.7 2 2.2 4.4 3 6-2.1-2.1-3.3-4.7-3.8-6.1zm-7.5 1.3c2.9-1 4.1-2 7.8 1.6-1.6-1-3.5-2.5-7.8-1.6zm-5.6 3.6c-.1-2.4 2-4.3 6.9-5.2-2.9 1.6-4.8 2.2-5.3 3.5 2.3-1 7.5-1.6 9.3-.8-2.7-.5-8.8.6-10.9 2.5zm7.9 4.6c-2.3.3-2.7 0-3.4-2.1-.1.4 0 2.4-.9 3.5-.7-.7-1-2.1-1.3-3.7-.2.5-.2 2.4-.7 3.9-.4-1.2-1.1-2.3-2-3.8-.5 1-1.3 1.7-2.4 2.5.3-.7 0-2.7-.4-3.8-1.1 1-2.1 1.7-3.9 1.6 2.8-.5-1.9-9.1 4.5-9.9-4.9 1.6-1.9 7.5-2.9 8.7.5.1 1.7-.6 2.6-1.8.3.7.7 1.9.9 3.6.3-.1.8-.8 1.3-1.8.4.2 1.5 1.1 2 2.4 0-1.1.5-2.7 1.1-3.3.2.7.5 1.8 1.1 2.6.3-.3.4-1.2.6-2.8.1.3.4.9 1.1 1.8 0-.9.4-2.1 1.8-3.5-1.7 2.3-1.5 4.6.9 5.9zm-3.2 4.5c-.8.1-3.2.3-3.6.1.8-.2 2.7-.7 3.1-.8-.1-.4-.1-1.3.3-1.3.4.5.8 1.6.2 2zm-8.6-10.3c.7-.8 1-1.3 1.9-1.6 0 .7 0 1.4.4 2 .4-.7 1.3-1.9 1.4-2-.6 1.1-1.2 3.1-1.3 3.7-.5-.7-.8-1.6-1.1-2.4-.4.1-1.5 1.2-1.9 1.7-.1-.9-.2-3.5.5-5.1-.1 1.2-.2 3.2.1 3.7zm7.8-8c-.8.4-3.4 1-4 2.3 2.2-.9 3.4-1.1 4.3-.7-1.3 1-1.5 1.3-1.5 1.6 1.4-.4 2.6-.2 3.3.3-2.3.5-4.3.8-5.3 1.4.1-.9.2-1.7.8-2.2-2.4.7-3.8 1.7-4.5 2.4.8-2 1.4-4 6.9-5.1zm16.1 13.4l.6.1c-.1 1-.3 2.4-.4 2.3.1-.1-.1-1.4-.2-2.4zm-.1 5.6l.7-.1c.1 4.9-.5 16.9-.5 16.9-.1 0-.5-11.9-.2-16.8zm-4.1-14.7l.8.1c.4 2.8 2 6.2 2.9 7.5-1.9-2.3-3.6-7-3.7-7.6zm1.6 7.1l.8.2c.1 1.6 1.2 5.5 1.7 6.4-1.2-1.3-2.6-5.9-2.5-6.6zm-6.7 16.5h-.8c.9-2.3 5.2-5.1 8.1-10.8-.3 2.9-4.8 7.3-7.3 10.8zm2.1 8.5c-1.6-4.4-2-6 1.9-10.9-1.5 3.1-3.4 6.3-1.9 10.9zM60 99.6c.8-1.3 2.6-4.7 3.1-7.4h.8c-.1.5-2 5.1-3.9 7.4zm-.5 6c.4-.8 1.6-4.7 1.8-6.3l.8-.1c0 .6-1.5 5.2-2.6 6.4zm1.9-.8c2.8 5.7 6.9 8.6 7.8 10.9h-.8c-2.5-3.5-6.9-8.1-7-10.9zm3.1 8.5c3.7 4.9 3.3 6.6 1.5 10.9 1.6-4.6-.2-7.8-1.5-10.9zM44.6 57.1h29.8l.1 26.2c-.3 3.3.1 7.7-7.5 7.8-7.6.1-7.5 2.7-7.7 6.4-.2-4 0-6.3-7.6-6.6-7.3-.3-6.8-4.9-7-8.3l-.1-25.5zm8.8-2.3s-.7.8-.7 1.1h-.8c.4-.2 1.5-2.6 1.8-3.3.6.5.5 2.7.6 3.4h-.8c0-.6-.1-1.2-.1-1.2zm5.3 1.3h-.8c0-.5-.4-1.4-.4-1.4s-.3 1-.3 1.3h-.8c.4-.2.7-2.3 1-2.9.5.5 1.3 2.3 1.3 3zm-10.9-3c-1.2.2-3.2-.5-3.9-1.3 1 .1 4.4-.8 5.4-3.2-.2 1.6-1.9 3.3-3 3.7.8.2 1.4.4 2-.2-.1 1 0 2.1-.3 2.4.9-.9 2.5-2.4 2.7-3.6.4.8.3 2.9.2 3.2.9-1.1 2.5-3.4 2.8-4.8 1.3 1.5 2 3.6 2 4.3.5-2.5.9-4.4.8-4.9 1.3 2 2.1 4 2.1 3.8-.1-3.3-.8-7.3-1.9-8.5 1.8 1.1 2.7 4.8 2.4 11.2-.5-1.3-1.6-3.3-2.3-3.7-.1 1.2-.5 3.9-1.6 4.7-.1-1.3-.3-4.3-1.5-5.1-.2 1.5-2.9 4.5-3.9 4.9.2-.7.4-2.3.2-2.5-1.2 1.8-2.2 2.5-3.1 2.5.9-1.4 1-2.2.9-2.9zm-1.9-13.8c-.4-.3-.9-.6-1.4-1 .5.2.9.6 1.4 1 3.2 2.4 4.4 4.2 5.1 5.9.1-1.7-1.5-6.7-2-7.9 2.5 2.1 4.8 5.3 5.3 6.4-.8-2.3-2.7-6.6-3.7-7.7 3 1.4 4.3 2.7 4.3 2.7s-2.1-3.8-4.6-4.1l-.8-.6c3.8.8 4.7 1.9 8.6 9.8-1-1.1-4.2-5.5-6.1-6.2 2.3 3.3 3.7 6.1 3.3 12.1-1-4.5-3.7-9.4-5.2-10.5 1.2 2.4 2.6 6.2 1.5 11-.2-2.6-2.7-8.3-5.7-10.9zM36 28.9c-.4-.3-1-.4-1 .6.1.3 3.8 5 8.5 8.3 0 .1.5.5-.3.1s-6.2-4.7-8.6-8.5c-.1-1.3 1-1.4 1.7-.8.3.7 2.2 4.5 7.8 7.7-3.1-1.6-5.7-2.8-8.1-7.4zm-2.5 3.7c-.7.1-1.4.2-1.7.4.2-1 .9-1 1.7-.4zm7.3 4.1c-.4-.4-1.6-1.2-4-2.3-3.2-1.6-5.9.1-6 .2 0-.1-1.1-1.7-.9-3 .2-1.7 2.5-2.3 4-2.2-1.6.1-2.7.9-3.2 1.5-.4.7-.4 1.5.2 2.7 2.4-.7 2.9-.7 4.8-.3 1.7.5 4.3 2.7 5.1 3.4.2.1.2.2.2.2 0-.1-.1-.1-.2-.2zm-5.3 2c.6-1.9 2.2-2.5 4-1.8-1.8.1-3.1.4-4 1.8zm1.1-12.2c.3.1 10.5 1.3 15.5.9-.2.6-1 1.5-1.9 2.1.5.3.9.7 1.2.8.1 0 .1.1.2.1 0 0-.1 0-.2-.1-.4-.3-1.3-.7-1.8-.8.3-.2 1.9-1.4 2-1.9-3.4.1-13.6-.3-15.1-.7h-.1c-.2-.3-.2-.5.2-.4zm-.8-3.3v-.6h.5v-.5h.6v.6l.5-.1v.6h-.5v.5h-.6v-.5h-.5zm.5-4.1h.6v.5h.5l.1.6H37v.5h-.6v-.5h-.5v-.6h.5l-.1-.5zm1.3 1.5h.6v.5l.5-.1v.6h-.5v.5h-.6v-.5h-.5V21h.5v-.4zm1.9-2.3l.2 3.3-.3-.1-.6-3.3.7.1zm.3 5.5c-.1.1-.4-.2-.6-.7-.2-.5-.2-.8-.1-.9.1-.1.4.3.5.7.3.4.3.9.2.9zm-.2-7.2c0-.5.4-.9.8-.8.5 0 .9.4.8.8 0 .5-.4.8-.9.8-.4.1-.7-.3-.7-.8zm-.2-2.2v-.8h.7v-.7h.9v.7h.7v.8H41v.7h-.8v-.7h-.8zm2.2 4l.5-.1-.7 3.3h-.2l.4-3.2zm1.1 2.4c.4 0 .7.2.7.6 0 .3-.3.6-.6.6-.4 0-.7-.2-.7-.6 0-.3.3-.6.6-.6zM43 19c.3 0 .7.3.7.6 0 .4-.3.7-.7.7-.3 0-.6-.2-.6-.6 0-.4.3-.7.6-.7zm1.5-.3c.3 0 .6.3.7.6 0 .4-.3.7-.6.7-.4.1-.7-.2-.7-.6 0-.4.3-.7.6-.7zm.3 2.9c-.4 0-.7-.2-.7-.6 0-.4.2-.7.6-.7.4 0 .6.3.7.6 0 .4-.3.7-.6.7zm-1.1 3.8v.8c-1.7.3-5.2.4-6.7-.2l.1-.7 6.6.1zm-1.3-2.2c.3-.3.6-.5.7-.4.1.1-.1.4-.4.7-.3.3-.6.4-.7.3 0 0 .1-.4.4-.6zm-.5 0c-.3.4-.5.7-.7.7-.1-.1-.1-.5.1-.9s.5-.7.6-.7c.2 0 .2.4 0 .9zm-1.4-3.9c-.2 0-.5-.3-.5-.5 0-.3.2-.5.5-.5s.5.2.5.5-.2.5-.5.5zm-.1 1.2c-.2 0-.4-.2-.4-.4s.2-.4.4-.4.4.2.4.4-.1.4-.4.4zm.4 2.4c0 .5-.1 1-.3 1-.1 0-.2-.4-.2-1 0-.5.2-.9.3-.9.1-.1.2.3.2.9zm-.3-1.3c-.2 0-.3-.2-.3-.4s.2-.3.3-.3c.2 0 .3.1.3.3 0 .3-.1.4-.3.4zm-2.6 1.1c.1-.1.4.1.7.4.2.3.4.6.3.7-.1.1-.4-.1-.6-.4-.3-.3-.4-.6-.4-.7zm2.7 1.6c1.5 0 2.8.2 2.8.4s-1.3.3-2.8.3c-1.5-.1-2.8-.3-2.8-.4 0-.2 1.2-.4 2.8-.3zm3.6-1.1c-.4 0-.7-.3-.7-.6s.2-.7.6-.7c.4 0 .6.2.7.6.1.4-.2.7-.6.7zm4.4 9.2c1.1.6 3.1 1.5 4.9 1.6-1-.4-2.9-1.5-3.4-2.1.8.6 4.3 2.2 6.1 2.3-2.8.6-5.9.3-7.6-1.8zM39 30.6c-.5-.3-1.4-1.6-1-2.1 2 .5 8.1 1.2 8.6 1.2-1 .4-6.9-.1-7.6.9zm9.1 6.8c-.6-.5-3.6-2.8-4.5-3.2.2.2.9 1.2 1.2 1.9-.2-.5-2.5-2.5-3.4-3.4 1.4.2 4.8 2.8 5.7 3.5-.1-.9-2.2-3.5-3.5-4.1 1.1.2 3.6 1.7 5.2 3.4-.2-1.6-1.9-3.4-3.1-4.2 1.2.1 3.7 0 4.6-.2 0 0-1.8.8-3.1.7.9.6 2.6 3.8 2.5 5-.5-.6-2.1-2-3.1-2.7.5.4 1.4 2.5 1.5 3.3zm9.5-14.8c.9.4 1.2.5 2.4.5 1.4 0 1.7 0 2.6-.4 1.8 1.7 5.5 3.6 9 4.4-1.9.2-4.3-.3-5.7-1.2-.1 1.4 3 3.7 3 3.7s-1.1.3-1.8.3-.4.5-.1.7c.3.3 1.5.5 2.2 1.2-2.5 2.2-5.2 2-7.6 1.6.2 1.4 2.9 2.3 4 2.5-1 1.3-3.9 5.9-5.8 10.1-1.9-4.6-4.6-9.3-5.6-10.5 1.1-.3 3.8-1.1 4.1-2.4-2.4.3-5.1.5-7.6-1.5.7-.6 1.9-.8 2.2-1.1.3-.2.7-.7 0-.7s-1.8-.4-1.8-.4 3.1-2.3 3.1-3.6c-1.4.9-3.8 1.3-5.6 1 3.4-.7 7.2-2.6 9-4.2zm-1-1.7c.5-.1.9-.1 1.4-.2-1.6 2-4.8 4.2-7.5 5.3 2.3-1.2 5.4-3.9 6.1-5.1zm-1.8.2s.4-.1.5 0c-.7.9-3 3.1-4 3.5.5-.4 2.7-2.5 3.5-3.5zm-.5-5.8v.5h-.6v-.5h-.5v-.6h.5v-.5h.6v.5h.5v.6h-.5zm-2.2-2.6v-.6h.5v-.5h.6v.5h.5v.6h-.5v.5h-.6v-.5h-.5zm.6-3.2h.5V9h.6v.5h.5v.5h-.5v.5h-.6V10h-.5v-.5zm2.1 3.4h.5v-.5h.5v.5h.5v.5h-.5v.5h-.5v-.5h-.5v-.5zm.2-2.6h.5v-.5h.5v.5h.5v.6H56v.5h-.5v-.5H55v-.6zm2.3-2.9l1.1 6.2H58l-1.5-6.2h.8zm1.8 8.7c.2.8.2 1.5-.1 1.6-.2 0-.5-.6-.8-1.4-.2-.7-.2-1.4 0-1.5.4-.1.7.6.9 1.3zm1.2-8.9h1.3L61 13h-.4l.5-5.4-.8-.1h-.8l.4 5.4-.4.1-.5-5.9 1.3.1zM59 4.8c0-.7.6-1.3 1.3-1.3.7 0 1.3.6 1.3 1.3 0 .7-.6 1.3-1.3 1.3-.7 0-1.3-.6-1.3-1.3zm-.1-2.4v-1l1.1.3-.2-1.3H61l-.3 1.3 1.1-.2v1l-1.1-.4.3 1.2h-1.2l.2-1.2-1.1.3zm3.2 12.5c.2.1.2.8 0 1.6s-.6 1.4-.8 1.3c-.2-.1-.2-.8 0-1.5.2-.9.5-1.5.8-1.4zm1.2-7.4l.8.1-1.6 6.1-.4-.1 1.2-6.1zm1.5 2.1c.4 0 .6.3.6.7 0 .4-.3.7-.6.7s-.6-.3-.6-.7c-.1-.4.2-.7.6-.7zm.8-1.7c.4 0 .7.3.7.7 0 .4-.3.6-.7.6-.4 0-.6-.2-.6-.6 0-.4.2-.7.6-.7zm.9 4.1c0 .4-.3.6-.6.6-.4 0-.7-.3-.7-.6 0-.4.3-.6.7-.6.3-.1.6.2.6.6zm.5-2.4c.4 0 .7.3.7.6 0 .4-.3.6-.7.6-.3 0-.6-.3-.6-.6s.3-.6.6-.6zm1.1 2.9c0 .3-.2.6-.6.6-.4 0-.7-.3-.7-.6 0-.4.3-.7.7-.7.4 0 .6.3.6.7zm-1.7 2c-.4 0-.6-.3-.6-.7 0-.3.2-.6.6-.6.4 0 .7.3.7.6 0 .4-.3.7-.7.7zm-.2 2.1c-.4 0-.7-.3-.7-.6 0-.4.3-.6.7-.6.3 0 .6.3.6.6.1.3-.2.6-.6.6zm2.7 8.2c-1-.4-3.3-2.7-3.9-3.6.2-.1.5-.1.5 0 .8 1 2.9 3.3 3.4 3.6zm-4.8-7.7c.1.2-.4.5-1.1.7-.7.2-1.2.2-1.3-.1-.1-.2.4-.5 1.1-.7.6-.1 1.2-.1 1.3.1zm.5-3.4c.4 0 .7.3.7.6 0 .4-.3.7-.7.7-.4 0-.6-.3-.6-.7 0-.4.2-.6.6-.6zm-.8-.3c-.4 0-.6-.3-.6-.6 0-.4.3-.6.6-.6.4 0 .7.3.7.6s-.3.6-.7.6zm-3.7.8c.2 0 .4.8.4 1.8s-.2 1.8-.4 1.8-.4-.8-.4-1.8.2-1.8.4-1.8zm.4-2.7c0 .2-.2.3-.3.3-.2 0-.3-.2-.3-.3 0-.1.1-.3.3-.3.2 0 .3.1.3.3zm-.7-2.9c0-.3.2-.5.5-.5s.5.2.5.5-.2.5-.5.5-.5-.2-.5-.5zm.4 1c.2 0 .4.2.4.4s-.2.4-.4.4-.4-.2-.4-.4c.1-.2.2-.4.4-.4zM56.3 17c.1-.2.6-.2 1.3 0 .6.2 1.1.5 1 .7 0 .2-.6.2-1.3 0-.6-.2-1.1-.5-1-.7zm3.8 1.6c1.9 0 4.9.4 5.5.6l-.1.4c-1.4-.2-3.8-.5-5.4-.5-1.5-.1-3.9.2-5.3.3l-.1-.4c.6-.2 3.7-.5 5.4-.4zm0 1.5c-1.6 0-3.7.2-5.1.4l-.1-.5c.6-.2 3.4-.5 5.3-.5s4.7.5 5.3.6l-.2.4c-1.4-.1-3.5-.4-5.2-.4zm-1.4.8c0-.3.7-.2 1.4-.1.8 0 1.5-.1 1.5.2 0 .3-.5.3-1.5.3-.9-.1-1.4-.1-1.4-.4zm.2 1c.4.1.7.1 1.4.2.5 0 .8 0 1.2-.1.4-.1.7.1.5.3-.3.1-.8.2-1.8.2-.9 0-1.5-.1-1.8-.2-.4-.4 0-.5.5-.4zm10.9 4.3h-.1c-.1 0-.2-.1-.2-.1-2.8-1.1-5.7-3.3-7.2-5.2.4.2 1.1.3 1.6.3 1 1.3 3.4 3.7 5.6 4.9 0 0 .2 0 .3.1zm14.1.9c.3-.1.3.1.3.4h-.1c-1.5.4-11.6.5-15.3.4.1.5 1.6 1.7 1.9 2-.6.1-1.6.6-1.9.8.2-.1.8-.6 1.3-.9-.9-.6-1.7-1.6-1.9-2.2 5.1.5 15.4-.4 15.7-.5zm-8.1-3.4v-.5h-.5v-.6h.5v-.5h.6v.5h.5v.6h-.5v.5h-.6zm-.4-4h.5v-.5h.6v.5h.5v.6h-.5v.5h-.6v-.5h-.5v-.6zm1.7 1h.5v.5h.5v.6h-.5v.5h-.5v-.5h-.5v-.6h.5v-.5zm1.9-1.8l.3 3.2H79l-.6-3.3.6.1zm-.6 3.9c.1-.1.4.2.6.7.2.4.3.8.2.9-.2.1-.4-.2-.6-.7-.2-.5-.3-.9-.2-.9zm0 1.6c-.1.1-.4-.1-.7-.4-.3-.3-.4-.6-.4-.7.1-.1.4.1.7.4.3.2.5.6.4.7zm1.5.4c1.5 0 2.7.2 2.7.4s-1.2.4-2.7.4c-1.6 0-2.8-.2-2.8-.4s1.3-.4 2.8-.4zm.2-5c-.3 0-.5-.2-.5-.5s.2-.5.5-.5.5.2.5.5-.3.5-.5.5zm0 1.3c-.2 0-.4-.1-.4-.4 0-.2.2-.4.4-.4s.4.2.4.4-.2.4-.4.4zm.1 2.3c0 .5-.1 1-.3 1-.2 0-.3-.4-.3-1 0-.5.1-.9.3-.9.2-.1.3.4.3.9zm-.2-1.2c-.2 0-.3-.1-.3-.3 0-.2.1-.3.3-.3.2 0 .3.1.3.3 0 .1-.1.3-.3.3zm-.7-5c0-.5.4-.8.9-.8s.8.4.8.8-.3.8-.8.8-.9-.4-.9-.8zM79 15v-.8h.7v-.7h.8v.7h.7v.8h-.7v.7h-.8V15H79zm2.1 3.9l.6-.1-.6 3.3h-.3l.3-3.2zm.1 4.8c-.2.4-.5.7-.6.7-.1-.1-.1-.5.1-.9s.5-.7.6-.7c.2 0 .1.4-.1.9zm.6 0c.2-.3.5-.5.6-.4.1.1-.1.4-.4.7-.2.3-.5.4-.6.4-.1-.1.1-.5.4-.7zm.5-2.6c.4 0 .6.3.6.7 0 .4-.3.7-.6.7-.4 0-.7-.3-.7-.7 0-.4.3-.7.7-.7zm.4-1.8c.3 0 .6.3.6.6 0 .4-.3.6-.6.6-.4 0-.7-.3-.7-.6s.3-.6.7-.6zm1.6 1.4c.4 0 .6.3.6.7 0 .3-.3.6-.6.6s-.6-.3-.6-.6c-.1-.4.2-.7.6-.7zm.2-1.7c.4 0 .7.3.7.7 0 .4-.3.6-.7.6-.4 0-.7-.3-.7-.6 0-.4.3-.7.7-.7zm-1.1 7.7c-1.6.5-5.1.3-6.7 0v-.8l6.6.1.1.7zm.3-3.1c-.4 0-.7-.3-.7-.7 0-.4.3-.6.7-.6.3 0 .6.2.6.6 0 .4-.3.7-.6.7zm2 6.5c-2.5 4-8 8.1-8.8 8.5-.8.4-.3.1-.3 0 4.8-3.2 8.6-8.2 8.7-8.4.1-.9-.5-.9-.9-.6-2.5 4.8-5.1 6-8.3 7.5 5.6-3.1 7.7-7.1 7.9-7.8.7-.7 1.8-.5 1.7.8zm1 3.4c.8-.6 1.5-.6 1.8.5-.4-.1-1.1-.3-1.8-.5zm2.7 1.3c.6-1.3.7-2.3.3-3-.4-.6-1.5-1.5-3.2-1.6 1.5-.1 3.9.5 4 2.3.1 1.6-1 3.2-1 3.2-.1 0-2.7-1.8-6-.4-2.3 1-3.5 1.7-4 2.1l-.3.3.3-.3c.9-.7 3.5-2.7 5.1-3 1.9-.4 2.4-.4 4.8.4zm-4.8 4.8c-.9-1.4-2.1-1.8-3.9-2 1.7-.5 3.3.1 3.9 2zm-10.9-9.5c.5 0 6.7-.5 8.6-.9.4.5-.5 1.8-1.1 2-.5-1.1-6.5-.7-7.5-1.1zm1.7 6.6c.3-.6 1.1-1.6 1.2-1.8-.9.5-3.9 2.6-4.6 3.2.1-.8 1.1-2.8 1.5-3.2-1 .6-2.9 2-3.4 2.6 0-1.2 2-4.5 3-5.2-1.3 0-3.3-.8-3.4-.9 1 .3 3.7.4 4.9.3-1.3.8-3.1 2.8-3.5 4.4 1.8-1.7 4.4-3.3 5.5-3.5-1.2.8-3.4 3.4-3.6 4.3.9-.7 4.4-3.2 5.8-3.4-.8.8-3.1 2.7-3.4 3.2zm-3.7-4c-1.9 2.4-5.1 2.5-7.8 1.9 1.9-.2 5.4-1.9 6.2-2.5-.6.9-2.6 2-3.5 2.3 1.7.1 3.7-.8 5.1-1.7zm2.7 7.1c-3.3 2.5-6.2 8.3-6.5 11.1-1-4.9.6-8.7 1.8-11.1-1.5 1-4.4 5.9-5.5 10.4-.3-6 1.2-8.8 3.6-12.1-2 .7-5.4 5-6.3 6 4.1-7.9 5.1-8.9 8.9-9.5l-.7.6c-2.5.1-4.8 3.9-4.8 3.9s1.4-1.3 4.4-2.6c-1 1.1-3.2 5.6-4 7.7.3-.9 2.8-4.3 5.6-6.4-.5 1.1-2.2 6.1-2.2 7.8.8-1.6 2.1-3.4 5.7-5.8.4-.3.8-.6 1.3-.8-.5.3-.9.5-1.3.8zM63 56.5h-.8c0-.3-.2-1.4-.2-1.4s-.5.8-.5 1.4h-.8c.1-.7 1-2.5 1.5-3 .2.7.4 2.7.8 3zm4.6 0h-.8c-.1-.3-.8-1.2-.8-1.2v1.2h-.8c.1-.7.1-2.9.6-3.4.2.7 1.4 3.1 1.8 3.4zm8.2-4c-.7.8-2.7 1.3-3.8 1.2-.1.7 0 1.5.9 2.7-1 0-2.2-.9-3.4-2.6-.3.2-.1 1.8.1 2.5-.9-.5-3.7-3.6-3.8-5.1-1.2.7-1.4 3.7-1.6 5-1.1-.8-1.4-3.4-1.5-4.7-.7.5-1.9 2.4-2.4 3.7-.1-6.3.9-10.1 2.7-11.1-1.1 1.2-1.9 5.2-2.1 8.5 0 .3.8-1.8 2.2-3.7-.1.5.1 2.5.7 5 0-.6.7-2.8 2.1-4.3.1 1.5 1.8 3.7 2.6 4.9-.1-.3-.1-2.3.4-3.2.1 1.2 1.6 2.7 2.5 3.7-.2-.2-.1-1.4-.2-2.4.8.6 1.4.4 2.2.3-1-.4-3-2.2-3.1-3.7.9 2.4 4.5 3.4 5.5 3.3zM93 106.6l.3.2c-1.1.9-2.6 1.6-4.6 1.1 1.4-.1 3.2-.3 4.3-1.3zm-.4-2.7c-.5 0-.9-.4-.9-.9s.4-.9.9-.9.9.4.9.9-.4.9-.9.9zm6.1-9.3l-.2 5.7-6.1.1c.4-2.7 3.8-6.4 6.3-5.8zm-2 8.2c0-.5.4-.9.9-.9s.9.4.9.9-.4.9-.9.9c-.5-.1-.9-.5-.9-.9zm-2.4.1c0-.5.4-.9.9-.9s.9.4.9.9-.4.9-.9.9-.9-.5-.9-.9zm11.8 2.2c-.3.7-1 1.5-1.3 1.7l-.3-.5c.4-.4.5-.9.5-.9-1.8-.3-7.5-.6-10.9-.4.3.7 1.2 1.7 2.5 2.5l-.3.5c-1.6-.6-2.7-2.3-3.2-3.5 3.5-.2 9-.1 13 .6zm-6.2-8.5c-.5 0-.9-.4-.9-.9s.4-.9.9-.9.9.4.9.9-.4.9-.9.9zm0 5.2c.5 0 .9.4.9.9s-.4.9-.9.9-.9-.4-.9-.9.4-.9.9-.9zm-1-3.9c0-.5.4-.9.9-.9s.9.4.9.9-.4.9-.9.9-.9-.4-.9-.9zm.9 1.3c.5 0 .9.4.9.9s-.4.9-.9.9-.9-.4-.9-.9.4-.9.9-.9zm-2.4-6.4v-1.9l2 .4-.4-1.6h1.9l-.4 1.6 1.8-.4v1.7l-2-.3.5 1.6h-2l.6-1.7-2 .6zm5.7 10c0 .5-.4.9-.9.9s-.9-.4-.9-.9.4-.9.9-.9.9.4.9.9zm2.4.3c0 .5-.4.9-.9.9s-.9-.4-.9-.9.4-.9.9-.9.9.4.9.9zm-4-8.5c2.7-.4 5.7 3.8 5.8 6.4l-6-.6.2-5.8zm6.4 8.7c0 .5-.4.9-.9.9s-.9-.4-.9-.9.4-.9.9-.9c.4.1.9.5.9.9zm-4.6 6.3c-.8.3-1.1.5-2 1.2-.9.7-2.5.8-3.4.8-1.6 1.1-3.1 1.1-4.1 1-1-.1-4.1-2.3-4-2.4.1.1 3.6 1.9 4.6 2 .9.1 2.2-.5 2.5-.9.1-.4 1.6-1.4 2.3-1.7 1.8-2.1-1.5-3.2-1.7-1.3 1.5-.1.4 1 .4.9 0 0 .4.3.2.6s-1.2-.2-1.4.1c-.2.4.2.3-.2.4-.4.1-.7.4-.6.7.1.3-.5.6-.8.2-.3-.4-2.1-.8-2.1-1.2 0-.3 2.2.4 2.5-.1.3-.5-2.9-.6-2.9-.9 0-.4 1.1-.3 1.4-.3.2 0 .3-.6.3-1 .1 0 .8.5.8.5s-.4.5-.3.7c0 .3.6.1 1 .4.3.3.8.2 1.1-.6-.4-.9.4-1.8 1.1-2.1.1-.4.1-.8-.2-1.1.6.1.9.4 1.3 1.1 1.4.7 1.1 1.8 1 2.2-.1.4 1.1-.1 1.6-.4.1-.6.4-1.3 1.2-1.7.1-.4-.1-.8-.4-1.1.8 0 1 .4 1.5 1.1 1 1.7 0 2.5-.7 2.9zm-77-1.9c-1.1 0-1.7.1-2.4-1.8 0 0 .9 1 1.5 1.4.7.4 3.2.1 3.2.1s-1.2.3-2.3.3zm-1.8 3.9c1.3-1.4 3.5-2.5 4-2.4-.5-.1-3 1.6-4 2.4zm-.7-.2c.1.4 0 .6-.3.7-.6-3.4-1.6-3.4-1.8-5.1-.3-1.8-.7 0-.6 0 0 0-.1.5.3 1 .1 0-.5-.2-.9-.6-.1 0 .4.6-.1.8 0 .1.2.4.2.8-.5.5 0 .8.4.7.4 0 .6-.4.7-.7.2.4.1 1-.3 1.6-.4.9.4 1.2.6 1.1.2-.1.4-.4.4-.8.3.3.3 1.1.1 1.6-.1.5-.1.6-.1 1-.1.4-1 1.2-1 1.2s-.3-.1-.7-.4c2.5-1 1.1-2.3-.1-1.9-1.2.6-1.3.4-2 .4-.6.1-.6-.9-.5-1.5.2.2.2.7.4.8 1.2.6 2.4-.6 2.4-1 0-.7-2.2-.6-2.6-.5-.4.2-1.4-.8-1.8-1-.4-.1-.6-.5-.5-1.1.6.1 1.7 1.3 2.5 1.5 2.6-.5 1.1-2 .8-2.1-.3 0-1 .5-1.2.6-.3.2-.3-.6-.5-.5-.3.2-.9-.2-1.3-.5-.4-.2.3-1 .4-1.4.1-.4-.3-.2-.3-.2-.1 0 .1-.7.4-1 .4 3.4 1.4 2.8 2.2 2.4-1.4-1.8-.5-2.7.6-3.5.4-.3 1.3-.5 1.4-.5.1 0-.1.3-1.2 1.3-1.2.9-1 .9-.7 1.8.3.9 1 .8 1.5.4s.5-1-.2-1.4c.4-.1.5-.7.9-.6.3.1-.2.5-.2.5s.2.3.9.2c.7-.1.3.6-.1.9-.3.4 1.3 2.2 1.5 2.5.2.4 1.4-.1 1.4.3s-1.2.3-1.4.6c-.2.1.3 1.3.4 1.6zm-8.3-3.2c-1.6-1.1-.5-2 .5-2.5-1.3 1.1-.9 1.7-.5 2.5zm28.3-31.6c-1.5.1-2.3-.3-3.3-2-.7 1.2-1.3 1.8-3 2.1-1.5-.8-1.7-1.6-1.9-2.3-.6 1-1.3 1.6-3.2 1.7-.8-.8-1.9-1.6-1.9-2.7-1.1.7-2.1 1.1-3.2.6-.6-.9-.8-1.7-.8-2.7-1.4.5-3 .8-3.7.2-.5-1.5-.7-2.6-.5-3.6-2-.1-3.3-.9-3.6-1.8.1-1 .4-2.3.7-2.7-1.8-.8-2.2-1.7-2.4-2.1.2-1 .6-2.1 1.1-2.6-1.1-.7-2.2-1.7-2.5-2.9.5-1.2 1.4-2.1 2.1-2.6-1.2-1.4-2.1-3.3-1.8-4.1.3-.8 2.3-1.6 3.1-1.4-1.9-1.7-2.6-4.1-2.1-4.8.6-.8 3.3-.5 4-.2-1.3-2.2-2-4-.8-7.4-.2 2.8-.8 6.3 4.9 10.6-1.6-1-5.2-3.8-7.4-2.6-.2 1.7 1.5 4.1 5.2 6.3-2.4-1.2-3.7-2.1-6.2-.3.4 2.8 1.6 3.6 4.7 4.4-2.1-.3-3-.7-4.9 2.3 1.4 2.2 2.9 2.5 5.2 2.3-2.3.2-3.2.5-3.8 2.7 1.4 2.2 2.7 2 4.8 1.5-2.3.7-3 1.4-3.1 3.3 1.9 1.9 3 1.4 4.9.4-1.2 1.2-1.9 2.1-1 4.8 2.4.5 3.2-.2 4.7-2.4-.8 2-1.4 3.1-.3 4.8 2.4.1 3-.8 3.9-2.4-.6 1.9-.9 2.9.9 4.5 1.8-.1 2.7-1 3.3-2.9 0 2.6.8 3.2 1.8 3.6 1.8-.6 2.3-1.6 2.7-3.3.9 2.4 2.2 3.6 3.5 3.3l-.1.4zm-10.1.6l1-.1c0 2.7-.1 3.2-.4 4.7-.2-1.4-.4-2.1-.6-4.6zm.3 7.2c-2.6-1.9-1.8-3-1.5-6.2.1 2.6 0 3.7 1.6 4.8 2.1-1.2 1.8-2.8 2-5 .4 3.8.9 4.8-2.1 6.4zM27.2 82c.1-1.4.8-3 1.1-5.6l1 .2c-.5 2.7-1.5 3.9-2.1 5.4zm-.8 2.6c-1.8-2.1-.9-4.1.2-7.2-.4 2.6-.9 5 .3 5.8 1.6-.3 2.6-3.1 3.3-5.2-.5 3.8-.9 5.6-3.8 6.6zm-2.7-10.4l.9.4c-1.2 2.5-2.8 4.3-3.7 5.5.3-1.4 1.7-3.5 2.8-5.9zm-4.3 8.6c-1.2-2.5 0-4.5 1.8-7.3-1.1 2.4-1.9 4.6-1 5.6 1.6.2 3.3-2.5 4.5-4.2-1.5 3.5-2.3 5.6-5.3 5.9zm-4.2-6.1c.8-1.2 2.9-3.3 4.7-5.2l.7.7c-1.9 1.9-4.1 3.7-5.4 4.5zM13 78.9c-.4-2.7 1.5-4.5 4.1-6.4-1.8 1.9-3.3 3.8-2.9 5.1 1.5.6 3.5-1.9 5.2-3.2-2.4 2.9-3.4 5.2-6.4 4.5zm-.4-7.6c1.1-.9 2.1-1.7 4.3-3.1l.6.8c-2.5 1.3-3.5 1.8-4.9 2.3zm-.4 2.2l-.3-.7c.6.1 2.3-.5 4.2-1.5-2.3 1.8-3.1 2.3-3.9 2.2zm1.8-5.9l-1.4 1.2-.3-.7 1.7-.5zm-4.5-1.1c1.3-.7 3.4-1.3 5.8-2.2l.4.9c-2.6.9-4.7 1.1-6.2 1.3zm-1-.8L7 65.6c1.4-.9 3.1-1.2 5.1-1.6-1.1.5-2.1.7-3.6 1.7zm-5.6-4.8c2.8-2.1 5.8-1.9 9.1-1.6-2.6.3-5.8.8-7.3 1.8 1.4 1.3 5.1 1.9 7.3 1.7-3.7.6-6.8.6-9.1-1.9zm-1.2-6.2c3-1.9 6.3-.9 9.5-.4-2.6 0-5.9-.1-7.5.7 1.3 1.4 6 2.6 8.1 2.9-3.5.1-8-.8-10.1-3.2zm-.2-8.1c3.5-.8 7.6 1.2 10.5 2.7-2.5-.8-6.6-1.9-8.3-1.7.7 1.8 5.9 4.1 7.8 5.1-3.5-1-8.7-3.1-10-6.1zm2.1-7c3.5-.3 7.3 2.2 10 4.1-2.3-1.2-6.2-2.8-8-2.8.5 1.8 5 5.3 6.7 6.5-3.3-1.5-7.9-4.7-8.7-7.8zm11.8 7l-.3 1c-2.4-1.1-6.8-4.2-7.4-5.3 1 .8 5.7 3.7 7.7 4.3zm1.1-4.8l-.2 1c-2.2-1.6-6.9-5.2-7.2-6.5.7 1 5.6 4.5 7.4 5.5zM5.2 31c.5.5 6 5.5 10.2 8.3-2-.9-7.4-4.1-8.6-5.8.8 3.3 4.5 6.5 7.4 8.7-3.3-2-9.4-5.8-9-11.2zm9.3 21.1c-2.6-.8-7.5-2.5-8.7-3.4 1.2.3 6.8 2 8.9 2.4l-.2 1zm-.4 4.8c-2.7-.5-6.7-1.1-8.1-1.6 1.5 0 5.7.3 8.2.6l-.1 1zm.4 3.4l.2 1c-2.8.1-6.2.1-7.7-.2 1.3-.3 4.9-.5 7.5-.8zm-2.2-30.7c.6 1.2 4.6 5.7 6.2 7l-.4.9c-1.8-2-5.6-6.6-5.8-7.9zm-3.4-8.5c.3.9 5.4 8.5 9 12.3-1.9-1.4-7.4-6.8-8.2-8.9-.1 3.6 3.8 8.6 6.1 11.7-2.8-2.9-9-9.2-6.9-15.1zm16.3 22.1c.5.5.2 1-.3.6s-3.5-3.5-3.6-5.6c.6 1.5 2.8 4.2 3.9 5zm.6 5.2c.3.2 0 .7-.3.4-.3-.3-3.5-2.1-3.8-2.4-.3-.2 0-.6.3-.3.2.2 3.8 2.3 3.8 2.3zm-.7 19.8c.3-.3 2.8-2.7 2.8-2.7.2-.3.7 0 .4.4-.4.3-2.6 2.5-2.8 2.7-.3.3-.6-.1-.4-.4zm-2.4-3.8c.4-.1 3.3-1.5 3.3-1.5.4-.2.7.3.2.5-.4.2-3 1.4-3.4 1.6-.2.1-.4-.4-.1-.6zm2.2-4.7c.4 0 .6.5.1.5-.5.1-3.3.4-3.7.4-.4 0-.4-.5 0-.5.5 0 3.6-.4 3.6-.4zm-3.8-8.3c-.4-.1-.1-.6.2-.4.4.2 3.5 1.1 3.5 1.1.4.1.3.7-.2.5-.4-.2-3.1-1.1-3.5-1.2zm3.4 5.1c-.5 0-3.3-.1-3.7-.2-.4 0-.3-.5.1-.5s3.6.1 3.6.1c.3.1.4.7 0 .6zm6.4 12c-.2.3-1.5 2.6-1.7 2.9-.2.3-.6 0-.4-.3.3-.3 1.7-2.8 1.7-2.8.2-.5.7-.2.4.2zm3.9 1c-.1.5-.8 3.2-.9 3.5-.1.4-.6.2-.5-.2.1-.4.9-3.5.9-3.5.1-.3.7-.2.5.2zm3.7.5c-.1.5-.2 3.3-.2 3.6 0 .4-.5.3-.5-.1s.1-3.6.1-3.6c0-.3.6-.4.6.1zm4.2 4.1c-.1-.4-.9-3.5-.9-3.5-.1-.4.5-.6.5-.2.1.5.8 3.2.9 3.5.1.5-.4.5-.5.2zM29.6 53.3c.4-.2 2.8.4 2.4 1-.2.2-2.8-.8-2.4-1zm-1.2 4.2c.4-.3 3.1-.4 2.9.3-.1.2-3.4 0-2.9-.3zm3.4 3.8c.1.2-2.5 1.7-2.3 1.2.2-.4 2.2-1.9 2.3-1.2zm-5.1-7.8c0-.8-.5-2.2-.5-2.1 0 0 1.9-.7 2.1-.8.1-.1.7-.3 1.1-.4-2-2.3-3-5-3.2-8.2l.1-.1c.1 3.7 2.8 7.9 6 10.4-.9-.7-2.4-1.7-3.1-1.3-.7.4-2.1.8-2 .8 0-.1.3 1.4.4 2.1.1.8 1.9 1.5 3.1 1.8-1.1-.3-3-.5-3.4.2-.5.6-1.5 1.7-1.5 1.7-.1-.1.8 1 1.4 1.7.4.7 2.3.5 3.2.3-1.2.5-2.7 1.5-2.7 2.3 0 .8 0 2.2-.1 2.2 0 0 1.4.3 2.2.5.7.3 2.1-1 2.8-1.8-.7.8-1.6 2.2-1.4 2.8.3.6.7 1.8.6 1.8-.1 0 1.2-.2 1.9-.2s1.4-1.5 1.8-2.4c-.3 1-.7 2.5-.2 3l1.4 1.4c-.1 0 1-.6 1.7-1 .6-.4.6-2 .6-2.5.1.8.4 2.4 1.2 2.6.6.2 1.8.7 1.8.7s.6-1.1 1.1-1.6c.4-.6-.2-2-.7-2.8.1 0 1.1 1.5 1.2 2.1.2.7 0 1.1-.4 1.5-.5.4-1.1 1.6-1 1.6 0 0-1.1-.6-1.7-.8-.6-.2-1.2-.4-1.3-1.1-.2.6-.3.9-.9 1-.6.2-1.7 1-1.6 1 0 0-.7-1-1.2-1.4-.5-.5-1-.8-.9-1.5-.3.5-.7.6-1.4.6s-1.9.4-1.9.4c.1 0-.3-1.2-.6-1.8-.3-.6-.4-.8-.1-1.4-.7.4-.9.2-1.7 0-.7-.3-2.1-.4-2-.3 0 0 .1-1.6 0-2.6 0-.9.2-1.1.9-1.8-.7 0-1.2-.1-1.7-.9-.4-.7-1.5-1.7-1.5-1.7 0 .1 1-1 1.4-1.7.5-.7.7-1 1.5-.8-.4-.3-.7-.7-.8-1.5zm7.6-2.2c.1.3.6.6 0 .9-.6.4-.6-.5-.6-.6 0-.1-3.3-4.3-4.4-5.2.7.2 4.7 4.6 5 4.9zM34 63.8c.1.2-1.5 2.3-1.5 1.9 0-.5 1.1-2.5 1.5-1.9zm3.5 1.3c.2.1-.6 2.6-.8 2.2-.1-.3.2-2.6.8-2.2zm3.6-.1c.3.1.8 2.7.4 2.4-.3-.4-1-2.5-.4-2.4zm-.6-9.6c.6.4 2 1.2 3 1.4-.5.3-1.7 0-2.4-.4.3 1.7 1.3 2.4 2.3 3-2.4-.2-3.4-2.7-2.9-4zm-8.8-30c-2.3-1.8-1.4-4.2-.1-7.7 1.4-3.5 0-2.9-1.8-2.5-1.8.4-5.3 1.9-6.3 2.1-1 .2-4.6.6-2.4 2.8 2.2 2.3 1.1 3.3.3 3.9-.7.6-2.1.4-2.9.4 4.5-.9 3.2-2.3 1.9-3.7-1.3-1.4-.8-3.3 1.2-3.7 2-.4 7.2-2.3 9.9-2.9 2.7-.6 1.8 2.6.2 6.2-1.7 3.7.2 4.8 1.9 5.4l-1.9-.3zm-9.6 3.8c-.7-2.4 1.5-2.5 1.5-4.2.9 2-1.4 2.5-1.5 4.2zM89 21.1c-1.6-3.7-2.4-6.9.3-6.3 2.7.7 7.9 2.8 9.8 3.2 2 .5 2.3 2.3 1.1 3.7-1.3 1.3-2.6 2.7 1.9 3.7-.8 0-2.3.2-3-.5-.7-.6-1.9-1.7.4-3.9s-1.3-2.6-2.3-2.9c-1-.2-4.5-1.8-6.3-2.2-1.7-.5-3.1-1-1.8 2.5 1.2 3.5 2.1 6-.3 7.6l-1.8.5c1.7-.7 3.6-1.6 2-5.4zm9.3 9.1c-.1-1.7-2.3-2.3-1.4-4.2 0 1.7 2.1 1.8 1.4 4.2zM120 48c-2-.9-3.6-1.1-7.3-.3 1.6-1.1 4.8-5.1 5.5-7.6-3.6-.3-6 1-8 1.7 6.2-4.9 6.5-7.8 5.9-12.1-3.2 3.2-13.1 11.1-13.1 11.1-.1 0 5-5.2 8.7-9.5 3.7-4.4 2-8.6-.3-11.8-.5 2.2-6.4 11.4-11.3 15.6l-.3-.8c-.2 1.2-3.5 5.7-5.4 7.3l-.4-.9c-1 1.6-7 6.7-9.5 9.3-2.5 2.6-1.5 5.1-.1 6.5 1.6 1.4 2.2 2.8.4 5.2-1.7 2.5-6.4 2.1-8.6-.6 4.4-1.8 4-4.5 3-6.7-2.7 3.8-4.3 2.2-6.6.1 2.4-.1 3.8-1.3 4.7-3-4.5.6-6-1.2-6.6-4-.7-2.7 2.1-5.9 5.4-8.1.1 0 .8.4 1.4.3.6 0 1.3-.9 2-1.2 3.3-.5 5 .9 4.7 4.4 1.2-.6 1.4-2.6 1-3.8-.4-1.2-1.5-1.4-1.4-1.6.2-.2 1.5.7 2.7 1.8 1.1 1.1 3.8 1.1 4.9.7 1.1-.5 1.7-2.2 2-3.8-.8 1.4-2.9 2.1-4.1 2-1.2-.1-3.5-1.9-5.6-2.3 1.7-1.5 4.1-.5 5.7.7 3.2-4.3.8-6.1-.8-6.9-1.6-.8-2.1-.2-2.5-.4-.4-.2-.8-.8-1.7-1.1v-.5c3.3-.1 5-1.5 6.5-2.7 1.6-1.2 1-4.5.5-6.1-.5-1.7.6-1.9 1.1-1.6.5.3 3.5 1.3 3.5 1.3s.3.2.6 1.2.1 1.6-.3 2.2c-.5.6-1.6 2-1.7 3.8-.1 1.9 1.3 2.8 1.4 4 .2 1.3-1.4 2-1.4 2s.5.4 1.4.3c.9-.1 2.5-1.1 3.1-2.5.5-1.3-1.2-3-1.2-3s1.1.6 1.9.6c.8.1.8-.3 1.5-.1.7.2.8 1.3.8 1.3s.7-.5.9-1.3c.2-.8.5-2.7-1.8-2.8-2.3-.2-1.8-1-.6-2.4 1.3-1.5 1.3-3.9-1.2-4.5-2.4-.5-3.6-1.8-4.5-3.3-.9-1.6-3.3-1.8-6.3-.8-3 .9-1.5 4.9-.5 7.3 1 2.3 1 3 .3 4.1-.6 1.1-3 1.8-4.4 1.8v-1c1.2-1.9 1.9-4.6 1.4-5.7-.4-1.1-2.3-1.7-3.5-1.7h-1.2c.8-.5 1-1.6.1-2v-.9h.7v-1.6H81V13h-1.7v.8h-.7v1.6h.7v.9c-.7.5-.6 1.5.1 2h-1.2c-1.2 0-3.1.5-3.6 1.7-.4 1.1.2 3.8 1.4 5.7l-.1 1.3c-4.2-.8-5.3-1.3-9.9-6l.1-.8c2.7-6.3 3-6.1 3.1-7.7 0-1.6 0-5.1-6.1-5.7 0 .7-.9 1.5-1.6-.3 1-.7 1.1-2.5.1-2.7l-.3-1.1 1 .3V.9l-1.2.4.5-1.3h-2.3l.4 1.2-1.1-.4v2.1l1.1-.3-.3 1c-1 .3-1 2 0 2.7-.7 1.8-1.6 1-1.6.3-6.1.4-6.3 3.9-6.3 5.5.1 1.6.3 1.4 2.9 7.8v.9c-4.7 4.6-5.6 5.1-9.8 5.7v-1.3c1.2-1.8 1.9-4.6 1.5-5.7-.4-1.1-2.3-1.7-3.5-1.7h-1.2c.6-.5.8-1.4 0-2v-.9h.8v-1.6h-.7v-.8h-1.6v.8H39v1.6h.7v.9c-.9.6-.8 1.6 0 2.1 0 0-.1 0-1.1-.1-1.2-.1-3.2.4-3.6 1.5-.4 1.1.1 3.9 1.3 5.8v1c-1.5 0-3.8-.7-4.4-1.9-.6-1.1-.6-1.9.4-4.2 1-2.3 2.6-6.2-.4-7.2s-5.4-.9-6.3.6c-.9 1.6-2.1 2.7-4.6 3.2-2.4.5-2.5 2.9-1.3 4.5 1.3 1.5 1.7 2.3-.6 2.4-2.3.1-2.1 2-1.9 2.8.2.9.9 1.3.9 1.3s.1-1.1.9-1.3c.8-.2.6.2 1.5.2.8 0 1.9-.6 1.9-.6s-1.7 1.7-1.2 3 2.1 2.5 3 2.5c.9.1 1.4-.3 1.4-.3s-1.5-.7-1.4-2c.2-1.2 1.6-2.2 1.6-4-.1-1.8-1.2-3.2-1.6-3.8-.4-.7-.6-1.2-.2-2.2.3-1 .6-1.2.6-1.2s3-1 3.5-1.3c.5-.3 1.7-.1 1.1 1.6-.6 1.7-1.2 4.9.3 6.2 1.5 1.2 3.1 2.7 6.3 2.8v.5c-.8.2-1.3.9-1.7 1-.4.2-.8-.4-2.4.3-1.7.8-4.1 2.5-1.1 6.7 1.6-1.2 4-2.1 5.7-.6-2.1.4-4.4 2.1-5.7 2.2-1.2.1-3.2-.7-4-2.1.3 1.4.9 3.2 2 3.8 1.1.5 3.7.6 4.9-.5 1.2-1.1 2.5-1.9 2.7-1.8.1.2-.9.4-1.3 1.6-.5 1.2-.3 3.2.8 3.8-.2-3.4 1.5-4.8 4.8-4.2.7.4 1.4 1.3 2 1.3.5.1 1.3-.3 1.4-.3 3.2 2.3 5.8 5.5 5 8.3-.7 2.8-1.9 4.5-6.4 3.8.8 1.8 2.2 3 4.6 3.2-2.3 2-4 3.6-6.5-.3-1.1 2.2-1.6 4.9 2.8 6.8-2.2 2.7-7 2.9-8.6.4-1.7-2.4-1-3.8.5-5.2 1.5-1.3 2.5-3.9.1-6.5s-8.3-7.9-9.3-9.5l-.3.8c-1.9-1.7-5.2-6.3-5.2-7.4l-.4.8c-4.7-4-10.4-13.4-10.8-15.6-2.3 3.1-4.1 7.3-.6 11.7 3.6 4.1 8.5 9.5 8.5 9.5s-9.7-8-12.8-11.1c-.8 4-.6 7 5.5 12-2-.8-4.3-2.1-7.9-2 .6 2.5 3.7 6.5 5.3 7.7-3.8-1.2-5.4-1.1-7.4-.2.9 1.8 3.9 5.1 6 6.1-2.5.3-5.5 1.7-5.9 2 1.1 1.7 2.9 3.1 5.2 3.9-2.7 1.2-3.4 2.1-3.8 2.7 1.2 1.8 2.6 3.1 4.7 3.4l-.9.9c.4.5 1.9 1.2 2 1.6.1.3.6-.3.8-.8 0 .3 1.6.9 1 1.7.3 1.7 1.5-.2 2-1.1 3 3 .2 6.5.3 6.7 0 .1.8.7 1 1.3 1.6-.8 5.4-3.3 5.4-3.3s-4 3-5 4.2c-.9 1.4-.4 3.7-.2 3.9.2.3 2.8 1 3.7.1 1-.9 5.5-6.3 5.4-6.2 0 .2-2.4 3.4-3.3 5.3-.8 1.8.4 4.5.7 4.8.6.3 3.6 0 4.1-.9.4-.9 3.7-7.2 3.6-7.2 0 0-2.2 4.8-2.4 6.4-.1 1.6 1.5 3.8 1.9 3.9.5.1 3.3-.6 3.6-1.8.4-1.1 1.9-7.2 1.8-7.2 0 0-.8 4.2-.5 5.4.1 1.4 2.1 2.4 2.5 2.9.3.8.7.5 1.1 0 .4-.4 2.6-.8 2.5-3.3-.1-2.5 0-4.4 0-4.4s1.5.1 2.2-.6c.7-.6 1.2-.9 1.1-.9 0 0 .6 1.4 1.5 1.4.9.1 1.7.3 1.7.3l.1 8.2c-2 1.6-3.7 2.5-6.4 1.8l.5.7c-4.1.3-6.7 1.8-6.2 6.9.5 5-2 3.5-2.1 3.5.1 0 1.3 3.4 5.1.8.6 1.5.1 3.5-.3 4 1.1-.4 2-1.3 2.3-1.7.3-.4.3.7.1 1.3-.1.5 1.2-1.4 1.3-1.9.2-.5 1.7 1 .1 2.3-1.6 1.3-6.7 3-8.9 3.3-2.7.4-5.5.8-5.5-1.9 0-2.6-3.1-2.9-4.3-1.6-.8-.7-1.3-2-1.3-2 0 .2-2.2 1-2.3.8-.1.2.6 2.1.2 2.6-.4.5-2.4 1.5-2.2 2.4-.1 1.4 1.3 1.8 1.5 1.9-.4 1.3.9 2.6 1.8 2.3-.1 2.4-.7 1.8 2.1 3.2.5.3 1.2.1 1.5.4.3.3 2.1 1.5 2.8-2.3 1.1-1 3.5-2.6 6.1-3.1 2.9-.5 13.3-2.8 15.7-3 .1-1.7-.7-3.4-.7-3.4s2.7-.6 3.7-2.6c-1.7.4-3.4.1-3.5-1.9-.1-2 1.4-3.6 3.5-3.4 2.5.2 5 2.3 4.8 4.6-.1 2.2-1.8 3.2-3 4-1.2.9-1.1 2.7-1.1 2.6 0 0-.1-.6.8-1 1-.4 2.7-.4 2.7-.5 0 0 0 .5-1 1.1-1 .7-4.3 2.1-5.7 2.7-1.7.7-4.2 2.9-5.1 2.8-.9.1-1.8-.2-1.9-1-.1-.7.4-1.7.4-1.7s-2.1.4-2.8 1.5c-.7 1.2-1.1 3.7.4 4.6-1.4 1.6-1.9 4.6-1.1 6.2.7 1.7.6 3.1.6 3.1s1.5-.5 1.6-1.6c.1-1 1.2-2.3 1.2-2.3s0 2.9 1.7 4.1c1.7 1.2 3.5 1.9 6-.4 2.4 2.8 4 4.5 8.1 3.1.6.9 2.3 2.6 3.2 2.9.9-.2 2.7-1.6 3.4-2.5 4.1 1.5 5.6-.1 8.2-2.9 2.8 2.4 4.5 1.7 6.2.5 1.7-1.1 1.8-4 1.8-4s1 1.3 1.1 2.4c.1 1.1 1.6 1.6 1.6 1.6s-.1-1.4.6-3c.8-1.6.3-4.7-1-6.3 1.5-.8 1.2-3.3.5-4.5-.7-1.2-2.7-1.6-2.7-1.6s.5.9.4 1.7c-.1.8-1 1-1.9.9-.9 0-3.4-2.3-5.1-3-1.6-.7-4.9-2.1-5.9-2.8-1-.7-.9-1.2-.9-1.2s1.7.2 2.7.5c.9.4.7 1 .8 1 0 0 .1-1.7-1.1-2.6-1.2-.9-2.8-1.9-2.9-4.2-.1-2.3 2.5-4.3 4.9-4.4 2.4-.1 3.8 1.5 3.7 3.4-.1 1.9-2.1 2.2-3.7 1.8.9 2.1 3.8 2.7 3.8 2.7s-.8 1.6-.7 3.3c2.3.3 12.8 2.7 16.2 3.5 1.3.7 4.4 2.6 5.7 2.7 1.3.1 2.5-.8 3.4-1.1.9-.2 2-.1 2.7-.4.7-.2 1.5-1.3 3-1.7 1.4-.4 1.4-1.7 1.2-2.3.6-.4 1.9-2.3 2.1-2.7.2-.3.2 0 1-.1s1.3-3.1.4-3.6c-.9-.4-.3-.3-.7-.7-.5-2.3-2.2-5.8-5.8-6.6l-.6-1.1 1.7.7v-3.7l-1.7.8L102 89h-3.8l.5 1.7-1.8-.8v3.7l1.9-.7-.7 1.1c-3.6.7-5.5 3.6-6 5.9 0 .2-.5.2-.9.6-.5.4-.5 3.6 0 3.7.4.2 1.2.1 1.3.3.1.3.6 1.3.6 1.3s-1.9 1.7-4.2 1.6c-2.3 0-7.4-2.1-8.9-3.5-1.6-1.3 0-2.8.2-2.3.1.5 1.4 2.5 1.3 1.9-.1-.6-.1-1.7.2-1.3.3.4 1.2 1.3 2.2 1.8-.3-.5-.8-2.6-.2-4.1 3.8 2.8 5.2-.6 5.2-.6s-2.7 1.4-2-3.5c.6-5-1.9-6.7-6-7.1l.6-.6c-2.9.9-4.5-.2-6.5-1.7l.3-8.2s.8-.2 1.7-.3c.9-.1 1.5-1.4 1.5-1.4s.4.2 1.1.9c.7.7 2.2.6 2.2.6s0 2-.1 4.4c-.2 2.5 2 2.9 2.4 3.4.4.5.8.8 1.1 0 .3-.7 2.4-1.6 2.6-2.8.2-1.3-.4-5.5-.4-5.5s1.3 6.1 1.7 7.3c.3 1.1 3.1 1.9 3.6 1.8.5-.1 2.1-2.2 2-3.8-.1-1.6-2.2-6.5-2.2-6.5s3 6.4 3.4 7.3c.5.9 3.5 1.3 4.1 1 .5-.2 1.7-2.9.9-4.8-.8-1.8-3.1-5.1-3.2-5.3 0-.2 4.3 5.3 5.2 6.3.9.9 3.5.3 3.8 0 .2-.2.7-2.5-.1-3.9-.9-1.3-4.9-4.4-4.9-4.4s1.8 1.1 4.5 3.1c2.5 2 3.4 1.1 5.5.7.3-.8 0-3-1.2-4.9 3.3.1 4.1-.6 5.4-1.5-.1-.7-1.1-2.8-2.6-4 2-.4 3.5-1.5 4.7-3.3-.4-.6-1.1-1.5-3.7-2.8 2.3-.8 4.1-2.1 5.2-3.8-.4-.4-3.4-1.9-5.9-2.2 2.3-.8 5.5-4 6.4-5.8zM55.6 71.8c.5 2.9.7 3.3 2.2 2.9l.2.4s-1.3.1-1.6-.1c-.4-.1-.3.7-.2 1 .1.3 1.4.2 2.2.1l.1.4c-.2.1-1.8.2-2.1.1-.3-.1-.1.5 0 .7.1.2 1.2.4 2.5.4l.1.4c-.4.1-1.8-.1-2.3-.3-.5-.2-.7 0-1.1.8l-.3-.2c1-1.3.3-4-.3-6.6h.6zm-2.8-10.2l.7.7 7 17.2-1.2-1.9-6.5-16zm-1.2.8l.2.2c0 1.5-.1 2.5 1.8 2.2l.1.4c-2.4.1-2.3-1-2.1-2.8zm4 .3l.4.2c-.5-.1-1.2.4-1.7.6l-.1-.4c.3-.3 1.2-.4 1.4-.4zm1.2 2.9l-.3.1c-.3-.9-.5-.5-1.6-.5l-.1-.4c1.3-.1 1.7-.3 2 .8zm.1-2.3c1 2.6.7 5.2-.1 5.8l-.1-.5c.8-.1.6-4 .2-5.3zm1.9 1.3c-.2-.4-1.1-1.1-1.5-1.6.7.3 1.2.5 1.5 1.6zm1.4-3.4c.3.2-.3 1.4-.6 1.6-.1.1-.4.1-.2-.2.1-.3.7-.8.6-1.1-.1-.3-.8-.7-1-.6-.4.1-.9 1.1-1 1.3-.2.2-.3 0-.4 0 .7-1.4 1-2.6 2.6-1zm-1.6 1.4l-.2-.2c0-.1.2-.1.3 0 .2.1.2.2.2.3 0 0-.1 0-.3-.1zm.7 7.5c.1.4 1.1 3.9 1 4.7.4.3.6 2 .6 2.9l-.5.1c.1-1.5-.3-2.4-.8-2.9.6-.8-.3-2.8-.9-4.3-1.6-.5-.7-.6 0-.6-1.5-.8-1.1-.9-.2-.5.9.5 0-.9 0-.9s.7.1 1-.2c-.2.5-.4.7-.4.7s.2.6.2 1zm.8-.7l.3-.2c.1.8.6 2.4 1.5 3.8.9 1.5.5 2.8-.8 2.9l-.2-.6c.7-.2 1.7-.3.5-2.4 0 .8-.1 1.5-.8 1.3l-.2-.5c.6-.1 1-.8-.1-2.7-.3-.1-.3 0-.4 0l-.2-.8c.4.6.8 1 .4-.8zm-.1-2.2c.3.3.8.3 1 .1.2-.2.5.1.4.3-.1.2-.1 1-.4.9-.4 0-1.2.5-1.2.4.1-.2.1-1.7.2-1.7zm1.5.8c1.8 1.2 4.1 2.4 4.7 2.5l.1.5c-.5 0-2.9-1.2-4.9-2.5l.1-.5zm.4-.4c.9.4 2.8 1.5 3.7 1.5l.2.5c-.6.1-3-1.1-4.2-1.7l.3-.3zm.2-1.6c.1-.2.7-1 1.3-1.4l-.4-.1c.1-.2 1-.8 1.5-.9l-.5-.1c.4-.4 1.6-.7 2.3-.6v.3c-2.4.2-3.2 2-4.1 4.4l-.2-.3c-.1-.3.1-.8.4-1.2l-.3-.1zm4.8 7.1c.2.1.6.9.4 1-.3.1-.5 0-1-.5-.5-.4-1.5-.8-3.8-.4l-.1-.4c1-.2 2.3-.4 3.5 0 .3-.2.9-.1 1 .3zm-.5 4.1h-.6l-.4-1.3.5-.1.3.7.9-1.3.4.4-1.1 1.6zM68.2 63l-.3.9-.9-.8 1.2-.1zm.7 3.3c-1.4-.8-.8-1.3-1-1.9.9 1.5.3 1.2 1 1.9zm-1 .5c-.1 0-.2 0-.3-.2-.1-.2-.1-.4 0-.4s.3.1.4.3c0 .1 0 .3-.1.3zm-5.8 21.6l-2.5 2 2.2-2.3.3.3zm-4.6 1l3.3-2.1.4.3-3.7 1.8zm-2-1.2l4.3-1.7.3.4-4.6 1.3zm-1.6-1.1c1.4-.8 3.9-1.5 5-1.4l.3.4c-.3 0-2.9.2-5.3 1zm-.2-2.1l-.3.1c-.1-.4.1-.9.2-1.1l.2.2-.1.8zm-.1 1.8c-.1-.1-.2-.7-.2-1.1h.3c0 .4.2 1 .2 1l-.3.1zm1.7-3.8l.1.3c-.4 0-1 .2-1.1.3l-.3-.2c.2-.2.6-.4 1.3-.4zm1.2 2.4v.3s-.9-.1-1.4 0v-.4c.3 0 1.4.1 1.4.1zm-1.8-.3s.1.7.3 1.1l-.4.1c-1.2-3 1.3-2 3.2-.9-3.6-.7-3.1-.3-3.1-.3zm9.6 3c.2-.4-.3-1.7-.6-2.6.4.2 1.2 2.3.6 2.6zm2.2-3.3v.3l-1.8.5-.1-.5 1.9-.3zm-1.8 1.5l-.1-.4 1.8.3.1.3-1.8-.2zm4.2 2l-4-1.2-.2-.6 4.2 1.8zm-4.2 0l.1-.6 2.2 2.4-2.3-1.8zM51 86.6c.6-.1 1.4-.5 1.8-.8l.1.4c-.2.2-.9.4-1.9.4zm-4.1-8c.4.1 1.1-1.8 1.1-1.8s.2 1.2-.1 1.8c.7-.3 1.4-1.9 1.4-1.9s.1 1.2-.1 1.8c1.5-.5 1.5-4.3 2.5-5-.6.6 1.4 4.4-.9 5 .3.9-.2 3.8-.9 4.7-.6.8 0 1 .1 1.1.1.1-.2 1-.2 1.4 1.2 1 2 0 2-.1s-.2-.6-.4-1c-.5-2 .9-4 1.2-4.3.2-.3 2.5-1.2 2.8-1.4.2-.1.7.4.7.7 0 .4-.4.5-.3 1 0 .5 1.7 1.5 1.7 1.5s1 .8 1.1 1.2c.1.4.4.4.6.4.2.1.7.5.7.7.8.7 1.5.6 1.5.5 0 0-.1-.9-.1-1-.1-.4-.9-.8-1.6-1.1-.2-.4-1.5-2-1.8-2.4-.4-.4-.2-.6.1-.8.2-.1 1.1-1.2 1.4-1.7l2 4.7c.1.2.1.7 0 .9 1.3 3-1.8 1.3-1.8 1 0-.3-.3-.7-.7-.6-5-3.3-6.2-.3-5.6 1.1-.3.2-1 .5-1.3.5-1.3 1.2-2.3.4-2.6.1-1.5.1-1.5-1.5-1.3-3.3-3.3 6 4.1 5.1 5.4 4.1-.2.1.1.7.4.7.3.3.9.5 1.4.5-.1.1 0 .4.2.6l.5-.2c.3 0 1.5.3 1.5.6l-.5.8c0 .1.1.4.4.6l.6-.4c.1.1 1.2.3 1.3.6l-.3.4c.1.2.2.4.6.4l2.8-2.4c.8.6 2.1.3 2-.3l2.6 2.1c.2 0 .6-.3.7-.7l-.5-.5c-.1-.5.8-1 1.3-.9l.6.4c.1 0 .4-.4.5-.7l-.6-.4c.1-.5.3-.7.7-.8l.6.2c.1-.1.2-.4.2-.7l-.6-.1c-.1-.3.2-.9.4-1.5 0 0 .4.1.4-.1.1-.1.1-.5-.1-.7l-2.4.4c0 .2.3 1 .4 1 .1.1.6 1 .7 1.4l-2.3.1c-.2-.1-.1-1-.1-1.3l-.3-1.1-3.1.4s-.3-1.5-.5-1.3c-.2.2-.8-2.7-1.6-2.2l-.6-1.5c.3-.1 2.1.2 2.8.1-.1-.5-1-1.2-1.8-1.5-1.4 0-1.1-.5-1-.5 0 0 1.3-.3 2-.5.8.2 2 2.3 2.3 3-.1 1.4.6 1.5 1 1.7.4.2 1 3.4 1 3.4s-.2.7 0 1.1h1.8s-.3-.8-.8-1.1L67 81.7c.3-1 0-1.8-.4-2-.4-.2-.2-.6-.3-1.7.7-.8 2.5-1.1 3.6-1.5 0 0 .4.4.5.4 0 0-.5 1.6-.7 2.4l-.7-.7-.8 1.8c2 1.3 3-1.5 3.1-3.4 1.3-.9.6-2.7-1.1-1.8 0 0-1.5.1-2.3.1.1-2.8-3-6.8-1.6-8.4-.7 2.1 1.8 2.1 1.5 3.5 2.3 1 2.2-.6 2.3-.9 0-.3-.3-1.8-.6-2.3-.2-.5.2-1.5-.3-2.3l.9-.8-1.5-.5.2-.6h-.7c-1.5-2.6-3.8-1.4-3.8-1.4s.5.2 1 .5c-.6-.1-3.2 1-3.2 1s.8.1 1.5.4l-2.1 1.4.5.2-1 .7s-.6-.1-1.2 0c-.6-1.3-1.6-2.6-.7-2.7l1.2.2c3.1-5.5-3.2-4.3-4.2-3-1.1 1.3-.3 1.5.5 1.3l.6.7c-.7.6-2.8-.6-3.4-.6-.6 0-.6-.4-.4-.9.1-.5-.1-1.7-1.1-1.9l-.6-1.1-.7.2.5 1.2c-.5.2-.5 1.1.1 2.4 0 0-3 1.8-4.2 3.1l.9.9 2.1-2 .3.1-2.9 2.9 1.4.9 2-1.9h.4l-2.5 2.6 1.4.6L53 66h.3l-2 2.6 1.9.3.8-1 1.2.4.3.8-1 .1.3 1.9s-1.4.4-2.4 1c-3.7-4.1-5.3 3.8-5.5 6.5zm-37.7-.3c.3-.2.4-.6.4-1 0-.7-.6-1.3-1.3-1.3-.6 0-1.2.6-1.2 1.3 0 .7.6 1.3 1.2 1.2.1-.2.6-.5.9-.2zm94.7 29.3c-.8-.4-1.3-.2-1.6 1-.3.4-.9.7-2.1 1.1-1.2.4-1.8 1-2.4 1.4 0 0 .2.4.7.2.5-.2 2.2-.3 2.7-.7.5-.4 1.2-.9 1.7-1.2.6 0 1.8-1.4 1-1.8zm-81.6 10c.9 1.9 3 .7 2.3-.8-.5.4-1.7.8-2.3.8zm-2-2.6c-.1.8.1 2.2 1.3 2.2 1.4.2 2.5-.5 3.1-.9.5-.5.1-1.7-.5-2.3-1.3 2.1-2.3 1.6-3.9 1zM102 95.2l-.2 4.8 4.9.6c-.5-2.3-2.4-5.2-4.7-5.4zM67.4 69.7c-.2 0-.7-.1-1.1-.3l.2.5c.3.1.8.2 1 .2l-.1-.4zM15.1 100c-.5.3-.4 1.2.3 1.5 1.4.1 1.9-.1 3.2-1 .1-.8 0-1.2-.8-1.3-.4.6-2.1 1.1-2.7.8zm.6-5.7l-5.6-13.6c-.3.3-.6.3-.9.3l4.4 13.8c.8.8 1.7.3 2.1-.5zM8.5 79c0 .2.2.5.5.5.2 0 .4-.2.4-.5 0-.2-.2-.4-.4-.4-.3 0-.5.2-.5.4zm1.9.8c0-.3-.3-.5-.7-.5-.5.7-1.1.5-1.3.4-.3.2-.3.5-.1.9.5.2 1.4.4 2.1-.8zm4.3 17.6c-1.1 3.5 4.6 2.4 1.7-.5-.4.2-1.4.6-1.7.5zm1.7-1.4c0-.4-.1-1-.4-1.3-.6 1-1.8 1-2.4.7-.1.3-.1 1.2.4 1.4.7.4 1.9.4 2.4-.8z"/></svg>