<svg id="_x31_" xmlns="http://www.w3.org/2000/svg" viewBox="0 0 548 105"><style>.st0{fill:#212422;} .st1{fill:#B09A5D;}</style><path class="st0" d="M488.3 19.1c1.7-.3 3.5-.5 5.5-.7s4-.2 6.1-.2 4.1.2 6.2.5 4 .9 5.7 1.9c1.7.9 3 2.2 4.1 3.9 1.1 1.7 1.6 3.9 1.6 6.7 0 2.4-.5 4.5-1.4 6.2s-2.1 3.1-3.7 4.2c-1.5 1.1-3.3 1.8-5.2 2.3-2 .5-4 .7-6 .7h-2.3c-.5 0-1 0-1.4-.1-.4 0-.8-.1-1-.1v13h-8.2V19.1zm12.2 6.2c-.8 0-1.5 0-2.2.1-.7 0-1.3.1-1.7.2v11.5c.1 0 .4.1.7.1.3 0 .7.1 1 .1.4 0 .7 0 1 .1h.7c1.1 0 2.1-.1 3.2-.2s2-.5 2.8-.9c.8-.5 1.5-1.1 2-2 .5-.8.8-1.9.8-3.3 0-1.2-.2-2.1-.7-2.8-.5-.7-1.1-1.3-1.9-1.7-.8-.4-1.7-.7-2.7-.8-1-.3-2-.4-3-.4zM367.1 49.1h-13l-3.1 8.2h-8.2l15.1-38.9h6l15.2 38.9h-8.7l-3.3-8.2zm-10.7-6.5h8.8l-4.3-12.2h-.3l-4.2 12.2zM319 53.1c-.8.1-1.5.2-2.3.2s-1.6.1-2.5.1c-1.9 0-3.6-.3-5.3-.9-1.7-.6-3.1-1.6-4.3-2.9-1.2-1.3-2.2-2.9-2.9-4.8-.7-1.9-1.1-4.2-1.1-6.8 0-2.5.4-4.7 1.1-6.7s1.7-3.7 3-5.1 2.8-2.4 4.7-3.2c1.8-.7 3.8-1.1 6-1.1.5 0 1.2 0 1.9.1.8 0 1.4.1 1.8.2v-4.7h8.1v4.9c.7-.2 1.6-.3 2.5-.4 1-.1 1.7-.1 2.4-.1 1.9 0 3.7.3 5.4 1 1.7.7 3.1 1.6 4.3 3 1.2 1.3 2.2 2.9 2.9 4.8.7 1.9 1 4.1 1 6.7 0 2.6-.4 4.9-1.2 6.8-.8 2-1.8 3.7-3.1 5-1.3 1.3-2.9 2.4-4.6 3.1-1.7.7-3.6 1-5.5 1-.7 0-1.4 0-2.1-.1-.8-.1-1.4-.2-1.9-.3v5.4H319v-5.2zm11.1-24.7c-.4 0-.9 0-1.6.1-.7 0-1.2.1-1.7.2v18.1c.3.1.7.1 1.2.1h1.5c1.1 0 2.1-.2 3-.6 1-.4 1.8-.9 2.5-1.7s1.3-1.7 1.7-2.9c.4-1.2.6-2.6.6-4.3 0-2.9-.7-5.1-2-6.7s-3-2.3-5.2-2.3zm-13.8 18.5h1.4c.6 0 1.2-.1 1.7-.2V28.6c-.8-.1-1.8-.2-2.8-.2-1.1 0-2.1.2-3 .6s-1.8.9-2.5 1.7c-.7.8-1.3 1.8-1.7 3-.4 1.2-.6 2.6-.6 4.3 0 2.9.7 5.1 2.1 6.7 1.4 1.5 3.1 2.2 5.4 2.2zm-98.5 2.2h-13l-3.1 8.2h-8.2l15.1-38.9h6l15.2 38.9h-8.7l-3.3-8.2zM207 42.6h8.8l-4.3-14.2h-.3L207 42.6z"/><path class="st1" d="M16.7 0h84.6l13.5 30.2-57.4 74.6L0 30.2 13.5 0h3.2zM95 9.8H19.8l-8.6 19.1 46.1 59.9 46.1-59.9L95 9.8z"/><path class="st1" d="M52.5 38.3l28.8-19-19 23.4-5 28-4.8-32.4z"/><path class="st0" d="M448.6 25.9h-12.2v31.4h-8.2V25.9H416v-7.2h32.6v7.2zM390.9 41v16.3h-8.2V18.7h8.2v17l13.5-17h9.3l-14.8 18.2 16.7 20.4h-10.1L390.9 41zm-104-3.2h.4l7.2-19.1h8.6l-11.2 26.9c-.8 2.1-1.7 3.8-2.5 5.4-.8 1.5-1.7 2.8-2.7 3.8s-2 1.8-3.2 2.3-2.5.7-4.1.7c-1.3 0-2.4-.1-3.1-.2-.8-.1-1.6-.5-2.6-1.1l2-6.6c.7.3 1.3.5 1.9.6s1.2.1 1.8.1c1.9 0 3.2-1.3 4-3.9l-15.7-28h9.6l9.6 19.1zm-30.6 3.6h-15.4v15.9h-8.2V18.7h8.2v15.5h15.4V18.7h8.2v38.6h-8.2V41.4zm-74-3.5v-5.1l-11 17.6h-2.5l-11.3-17.6v24.5h-7.7V18.7h7.4L170 40.4l13.2-21.7h7.3v38.6h-8.2V37.9zm287.8-.1h.4l7.2-19.1h8.6l-11.2 26.9c-.8 2.1-1.7 3.8-2.5 5.4-.8 1.5-1.7 2.8-2.7 3.8s-2 1.8-3.2 2.3-2.5.7-4.1.7c-1.3 0-2.4-.1-3.1-.2-.8-.1-1.6-.5-2.6-1.1l2-6.6c.7.3 1.3.5 1.9.6s1.2.1 1.8.1c1.9 0 3.2-1.3 4-3.9l-15.7-28h9.6l9.6 19.1zM536 49.1h-13l-3.1 8.2h-8.2l15.1-38.9h6L548 57.3h-8.7l-3.3-8.2zm-10.7-6.5h8.8l-4.3-12.2h-.3l-4.2 12.2z"/><path class="st1" d="M151.6 83.7h5.2c-.1 1.3-.4 2.2-1 2.8-.6.6-1.4.9-2.6.9-1.2 0-2.2-.3-3.1-.8l-.7 2.2c1 .6 2.4.9 4.2.9 1.9 0 3.3-.6 4.4-1.8 1-1.2 1.6-2.9 1.6-5.1 0-4.6-1.9-6.9-5.7-6.9-1.8 0-3.3.4-4.5 1.2l.8 2c1-.6 2-.9 3.1-.9 1 0 1.9.3 2.4.9.6.6.9 1.5 1 2.6h-5.2v2h.1zm17.7 5.5h2.7v-13h-8.3c-.1 2.9-.2 5.1-.4 6.7s-.5 2.7-.8 3.2c-.3.6-.7.8-1.2.8-.2 0-.4 0-.7-.1l-.4 2.2c.4.2 1 .3 1.8.3.4 0 .8-.1 1.1-.3.3-.2.6-.4.9-.8.3-.4.5-.7.7-1.1s.4-.9.5-1.5.3-1.2.4-1.6c.1-.5.2-1.1.3-1.9s.1-1.4.2-1.8c0-.4.1-1 .1-1.8h3.2v10.7h-.1zm14.2 0h2.7v-13h-1.6l-5.3 7.1-1 1.7h-.1l.1-1.6v-7.2h-2.7v13h1.6l5.3-6.9 1.1-1.8h.1l-.1 1.7v7h-.1zm15-13H188v2.3h3.9v10.7h2.7V78.5h3.9v-2.3zm9.7 13h2.7v-13h-2.7v5.2H203v-5.2h-2.7v13h2.7v-5.5h5.2v5.5zm8.9-6.1c.5-.1 1.1-.2 1.8-.2 1.7 0 2.5.7 2.5 2.1 0 .7-.2 1.3-.6 1.6-.4.4-1.1.5-2 .5-.5 0-1.1-.1-1.7-.2v-3.8zm0-6.9h-2.7v13c1.4.1 2.7.2 4 .2 2 0 3.5-.4 4.4-1.1s1.3-1.9 1.3-3.5c0-2.6-1.6-4-4.7-4-.8 0-1.6.1-2.4.2l.1-4.8zm8.8 13h2.7v-13h-2.7v13zm14.2 0h2.7v-13h-1.6l-5.3 7.1-1 1.7h-.1l.1-1.6v-7.2h-2.7v13h1.6l5.3-6.9 1.1-1.8h.1l-.1 1.7v7h-.1zm-6.7-17.7c.2 1 .7 1.8 1.5 2.4.8.5 1.7.8 2.8.8s2-.3 2.8-.8c.8-.6 1.2-1.3 1.4-2.4l-2-.6c-.2 1.3-.9 2-2.1 2-1.1 0-1.8-.7-2.1-2l-2.3.6zm18.8 4.7v4.2c0 1.7.3 2.8 1 3.5s1.6 1 3 1 2.5-.3 3.5-.9v5.3h2.7v-13h-2.7v5.6c-.6.5-1.6.8-2.7.8-.8 0-1.4-.2-1.6-.7s-.4-1.3-.4-2.4v-3.3l-2.8-.1zm14.3 2.9c1.1-.6 2.4-.8 3.9-.8.9 0 1.5.2 1.9.5.3.3.5.9.5 1.7 0 .3 0 .7-.1 1.2h-1.2c-4.4 0-6.6 1.4-6.6 4.1 0 1.1.4 2 1.1 2.7s1.7 1 2.8 1c1.7 0 3.1-.7 4-2h.1l.5 1.8h2.1c-.3-.9-.4-2.1-.4-3.4 0-.6 0-1.5.1-2.7.1-1.3.1-2.2.1-2.9 0-1.3-.3-2.3-.9-3.1-.6-.8-1.8-1.1-3.4-1.1-2.2 0-3.9.4-5.3 1.1l.8 1.9zm3.2 8.1c-.6 0-1.1-.2-1.4-.5-.4-.3-.5-.8-.5-1.4 0-1.3 1.2-2 3.7-2 .3 0 .7 0 1.2.1v2c-.6 1.2-1.5 1.8-3 1.8zm17.4-.8c-.8.6-1.7.9-2.7.9-1.2 0-2.1-.4-2.6-1.3-.6-.8-.8-1.9-.8-3.2 0-3 1.1-4.5 3.3-4.5 1 0 1.9.2 2.7.7l.7-2.2c-1-.5-2.3-.8-3.8-.8-1.8 0-3.3.6-4.3 1.8-1 1.2-1.5 2.9-1.5 5.1 0 4.6 1.9 6.9 5.6 6.9 1.7 0 3-.4 4.1-1.2l-.7-2.2zm2.1-3.7c0 2.1.5 3.8 1.5 5s2.5 1.8 4.4 1.8 3.3-.6 4.4-1.8c1-1.2 1.6-2.9 1.6-5.1 0-2.1-.5-3.8-1.5-5s-2.5-1.8-4.4-1.8-3.3.6-4.4 1.8c-1.1 1.2-1.6 2.9-1.6 5.1zm2.8 0c0-3.1 1-4.6 3.1-4.6 1.1 0 1.9.4 2.4 1.3.5.8.8 1.9.8 3.3 0 3.1-1 4.6-3.1 4.6-1.1 0-1.8-.4-2.3-1.3-.7-.8-.9-1.9-.9-3.3zm11.9 6.5c1.8.2 3.2.2 4.1.2 4 0 6.1-1.3 6.1-3.9 0-1.7-.9-2.8-2.7-3.2v-.1c.7-.2 1.3-.7 1.7-1.2.4-.6.6-1.2.6-1.8 0-1.1-.4-1.9-1.2-2.5-.8-.5-2.1-.8-3.8-.8-.7 0-2.3.1-4.7.2v13.1h-.1zm2.6-5.8h2.1c1.9 0 2.8.6 2.8 1.9 0 .7-.2 1.2-.7 1.5s-1.3.5-2.3.5c-.7 0-1.3 0-1.9-.1v-3.8zm0-1.8v-3.4c1-.1 1.7-.1 2-.1.9 0 1.5.1 1.9.4s.6.7.6 1.3c0 .5-.2.9-.7 1.2-.5.3-1 .5-1.6.5l-2.2.1zm9.8 1.1c0 2.1.5 3.8 1.5 5s2.5 1.8 4.4 1.8 3.3-.6 4.4-1.8c1-1.2 1.6-2.9 1.6-5.1 0-2.1-.5-3.8-1.5-5s-2.5-1.8-4.4-1.8-3.3.6-4.4 1.8c-1.1 1.2-1.6 2.9-1.6 5.1zm2.8 0c0-3.1 1-4.6 3.1-4.6 1.1 0 1.9.4 2.4 1.3.5.8.8 1.9.8 3.3 0 3.1-1 4.6-3.1 4.6-1.1 0-1.8-.4-2.3-1.3-.7-.8-.9-1.9-.9-3.3zm19.9 6.5h2.7v-13H340l-5.3 7.1-1 1.7h-.1l.1-1.6v-7.2H331v13h1.6l5.3-6.9 1.1-1.8h.1l-.1 1.7v7zm-6.8-17.7c.2 1 .7 1.8 1.5 2.4.8.5 1.7.8 2.8.8 1.1 0 2-.3 2.8-.8.8-.6 1.2-1.3 1.4-2.4l-2-.6c-.2 1.3-.9 2-2.1 2-1.1 0-1.8-.7-2.1-2l-2.3.6zM359 89.2h2.7v-13h-8.3c-.1 2.9-.2 5.1-.4 6.7-.2 1.6-.5 2.7-.8 3.2-.3.6-.7.8-1.2.8-.2 0-.4 0-.7-.1l-.4 2.2c.4.2 1 .3 1.8.3.4 0 .8-.1 1.1-.3.3-.2.6-.4.9-.8s.5-.7.7-1.1.4-.9.5-1.5.3-1.2.4-1.6c.1-.5.2-1.1.3-1.9.1-.8.1-1.4.2-1.8 0-.4.1-1 .1-1.8h3.2v10.7h-.1zm5.6-6.5c0 2.1.5 3.8 1.5 5s2.5 1.8 4.4 1.8 3.3-.6 4.4-1.8c1-1.2 1.6-2.9 1.6-5.1 0-2.1-.5-3.8-1.5-5s-2.5-1.8-4.4-1.8-3.3.6-4.4 1.8c-1.1 1.2-1.6 2.9-1.6 5.1zm2.8 0c0-3.1 1-4.6 3.1-4.6 1.1 0 1.9.4 2.4 1.3.5.8.8 1.9.8 3.3 0 3.1-1 4.6-3.1 4.6-1.1 0-1.8-.4-2.3-1.3-.7-.8-.9-1.9-.9-3.3zm22.8 6.5h2.6v-13h-2.7l-3.1 5.4-.8 1.6h-.1l-.8-1.6-3.4-5.4h-2.7v13h2.4v-7l-.3-2.6h.1l.9 2.1 3 4.6h1l2.8-4.6 1-2.1h.1l-.2 2.6v7h.2zm7.8-10.6c0-1 .2-1.9.4-2.5.2-.6.5-1.1 1-1.5.4-.3.9-.6 1.3-.7.5-.1 1.1-.2 1.9-.3 1.2-.1 2.1-.2 2.6-.3.6-.1 1-.3 1.3-.6l-.2-2.4c-.5.5-1.7.8-3.5.9-.6.1-1.1.1-1.5.2s-.9.2-1.3.3c-.5.1-.9.3-1.2.5-.3.2-.7.5-1 .8-.4.3-.6.7-.9 1.2-.2.5-.4 1.1-.6 1.7-.2.7-.3 1.4-.4 2.3s-.1 1.9-.1 3c0 5.5 2 8.2 5.9 8.2 1.9 0 3.3-.6 4.3-1.8 1-1.2 1.5-3 1.5-5.3 0-2-.4-3.5-1.3-4.5s-2.1-1.6-3.7-1.6c-1 0-1.9.2-2.6.5-.7.5-1.4 1.1-1.9 1.9zm.5 4.2c0-2.8 1.1-4.2 3.4-4.2 1.9 0 2.8 1.4 2.8 4.1 0 3.1-1 4.6-3.1 4.6-1 0-1.8-.4-2.3-1.3-.6-.8-.8-1.9-.8-3.2zm12.5-3.7c1.1-.6 2.4-.8 3.9-.8.9 0 1.5.2 1.9.5.3.3.5.9.5 1.7 0 .3 0 .7-.1 1.2H416c-4.4 0-6.6 1.4-6.6 4.1 0 1.1.4 2 1.1 2.7s1.7 1 2.8 1c1.7 0 3.1-.7 4-2h.1l.5 1.8h2.1c-.3-.9-.4-2.1-.4-3.4 0-.6 0-1.5.1-2.7.1-1.3.1-2.2.1-2.9 0-1.3-.3-2.3-.9-3.1-.6-.8-1.8-1.1-3.4-1.1-2.2 0-3.9.4-5.3 1.1l.8 1.9zm3.2 8.1c-.6 0-1.1-.2-1.4-.5-.4-.3-.5-.8-.5-1.4 0-1.3 1.2-2 3.7-2 .3 0 .7 0 1.2.1v2c-.6 1.2-1.6 1.8-3 1.8zm9.1 7.3h2.7v-5.4c.7.3 1.6.5 2.6.5 1.9 0 3.3-.6 4.4-1.9s1.6-3 1.6-5.2c0-2.3-.4-3.9-1.3-5-.8-1.1-2.1-1.6-3.8-1.6-1.7 0-2.9.6-3.8 1.9h-.1l-.4-1.6h-1.9v18.3zm5.5-16.4c1.9 0 2.9 1.4 2.9 4.3 0 1.6-.3 2.8-.9 3.7-.6.8-1.4 1.3-2.5 1.3-1 0-1.7-.2-2.3-.7v-6c.4-1.8 1.3-2.6 2.8-2.6zm20.7 8.8h-1.9V76.2h-8.4c0 2.1-.2 4-.4 5.7-.3 1.7-.5 2.8-.8 3.5s-.5 1.2-.8 1.5h-1.5v5.5h1.9l.4-3.2h9.3l.4 3.2h1.9v-5.5h-.1zm-9.7.1c.5-.9.9-2.2 1.1-3.8.3-1.6.5-3.2.5-4.7h3.4V87h-5z"/></svg>