<svg id="Слой_1" xmlns="http://www.w3.org/2000/svg" viewBox="0 0 247 112"><style>.st0{fill-rule:evenodd;clip-rule:evenodd;fill:#1D1D1B;} .st1{fill-rule:evenodd;clip-rule:evenodd;fill:#FFFFFF;} .st2{fill-rule:evenodd;clip-rule:evenodd;}</style><path class="st0" d="M116.2 20.5V23h14.6v-2.5c3.5-.5 5.8-3.8 5.9-6.8.1-2.6-1.4-5.1-4.9-5.7l.3-1h-4.5l-.3 1.3h-1.7c.3-.4.5-.9.5-1.5 0-.9-.5-1.7-1.2-2.1V4h1.3V1.3h-1.3V0h-2.7v1.3h-1.3V4h1.3v.7c-.8.5-1.2 1.3-1.2 2.2 0 .6.2 1.1.5 1.5h-1.7l-.4-1.4h-4.5l.3 1c-3.5.6-5 3.1-4.9 5.7.1 3.1 2.4 6.3 5.9 6.8z"/><path class="st0" d="M243 67.2c-14.5-.4-29-3.8-41.1-12-3-4.5-8.8-7.1-13.7-9-1.7-4.6-6.4-6.9-10.7-8.5-1.5-3.1-3.3-3.9-5.8-4.5-.9-.2-3.6-.6-5-1-3.4-1-7.1-2.5-10.8-.4-7.3 3.6 2.3 10.8-8.4 12.8.5-1.8 1.4-3.7 2.2-5.3-2.9-.4-7.4-1-8.8-1.9 0-1.1.3-2.7.6-3.5 0-.1.5 1.3.6 1.3.2-1 .7-2.5 1.5-3.2 1.6.4 7.4 2.2 8.2-1.8-1.1 0-2.7.1-3.6-.7 1.4-.7 4.3-1 5.3.5.2.2.3.3.4.1 2-4.1-2.7-5.8-4.8-5.8-.2-.6-.7-.9-1.2-1.3v-1.7c1.9-.2 2.9-2 2.9-3.7 0-1.7-.9-3.3-2.8-3.3l.1-.5h-2.4l-.2.6h-.8c.1-.2.2-.4.2-.7 0-.5-.3-.9-.6-1.1v-.5h.8v-1.3h-.8v-1H143v.8h-.8v1.3h.8v.5c-.4.2-.6.6-.6 1.1 0 .3.1.5.2.7h-.8l-.2-.6h-2.4l.1.5c-1.9 0-2.8 1.7-2.8 3.3 0 1.7 1 3.5 2.9 3.7v1.7c-2.1.3-3.9.1-5.2-.1 0 1.1 1.2 2.6 2.8 3.1-1 .6-2.5 1.3-3.6 1.6-.1 0 1.3.3 1.2.4-.8.8-2.8 1.5-3.9 1.9-.1 0 1.5.2 1.4.3-.4.2-2.8 1.7-2.8 1.7h-11.7s-2.3-1.5-2.8-1.7c-.1-.1 1.5-.2 1.4-.3-1-.4-3.1-1.1-3.9-1.9-.1 0 1.3-.3 1.2-.4-1.1-.3-2.6-1-3.6-1.6 1.5-.5 2.7-2.1 2.8-3.1-1.3.2-3.1.4-5.2.1v-1.7c1.9-.2 2.9-2 2.9-3.7 0-1.7-.9-3.3-2.8-3.4l.1-.5h-2.4l-.2.6h-.8c.1-.2.2-.4.2-.7 0-.5-.3-.9-.6-1.1v-.5h.8v-1.3h-.8v-.7h-1.3v.8h-.6v1.3h.8v.5c-.4.2-.6.6-.6 1.1 0 .3.1.5.2.7h-.8l-.2-.6H99l.1.5c-1.9 0-2.8 1.6-2.8 3.3 0 1.7 1 3.5 2.9 3.7v1.7c-.6.4-1 .7-1.2 1.3-2.1 0-6.8 1.7-4.8 5.8.1.1.2.1.4-.1 1-1.5 3.9-1.2 5.3-.5-.9.7-2.5.7-3.6.7.7 4 6.6 2.2 8.2 1.8.8.7 1.3 2.3 1.5 3.2 0 .1.5-1.3.6-1.3.3.8.6 2.4.6 3.5-1.4.9-5.9 1.6-8.8 1.9.8 1.7 1.7 3.6 2.2 5.3-10.7-2-1.1-9.1-8.4-12.8-3.6-2.1-7.3-.6-10.8.4-1.4.4-4.1.8-5 1-2.6.6-4.3 1.5-5.8 4.5-4.3 1.7-9 4-10.7 8.5-4.9 1.9-10.6 4.5-13.7 9C33 63.4 18.5 66.8 4 67.2c-2.1.1-3.5.2-4 2.5 0 4 4.5 4.8 7.4 4.9 0 0 .2.8.3 1.1 1.9 3.4 6.6 3.4 9.3 3.1 3 4.3 9 3.7 12.8 2.5 2.4 2.9 9.7 3.5 13.7 2.7 5.4 1.7 7.9 1 9.6.7-.3 2.5-3.5 4.4-5.5 4.2v18c3.4.1 5.3 2.1 5.5 5.2h140.5c.2-3.1 2.2-5.1 5.5-5.2v-18c-2.1.2-5.2-1.7-5.5-4.2 1.7.4 4.3 1 9.6-.7 4 .9 11.3.2 13.7-2.7 3.8 1.2 9.9 1.8 12.8-2.5 2.7.3 7.5.3 9.3-3.1.1-.2.3-1.1.3-1.1 3-.1 7.4-.8 7.4-4.9-.3-2.3-1.6-2.4-3.7-2.5zM55.4 83.5c7.8-2.1 13.8-6.6 19.4-10.7 1.5 1.3 3.3 1.2 5.1-.3.6 1.6 1.4 3.4 4 2.6.4.9 2 3.3 4.6 2.8 2.1 2.1 3.2 1.5 4.2 1.2.8.7 2.3 1.3 3.9.4 1 1.1 2.2 1.1 3.6.7.4.5 1.5.7 2 .4 1.2.7 4 2.3 5.3 2.9H55.4zm84.4 0c1.4-.7 4.1-2.2 5.3-2.9.5.4 1.6.2 2-.4 1.4.5 2.6.5 3.6-.7 1.7.8 3.2.3 3.9-.4 1 .3 2 .9 4.2-1.2 2.6.5 4.2-1.9 4.6-2.8 2.6.8 3.5-1.1 4-2.6 1.7 1.4 3.5 1.6 5.1.3 5.6 4.1 11.7 8.6 19.4 10.7h-52.1z"/><path class="st1" d="M197.7 90.1v15.4c-2.4.2-5 2.4-5.2 4.9H54.4c-.2-2.4-2.8-4.7-5.2-4.9V90.1c2.5-.6 4.9-2.7 5.4-5.3h55.8c2.7 1.4 9 3.6 13.2 4.7 4.4-1.2 9-2.8 13.1-4.7h55.6c.5 2.6 2.9 4.7 5.4 5.3z"/><path class="st1" d="M144.8 69.4V48.3c0-2.6.8-5.1 1.9-7.4-5.8-.7-10.9-3.4-15.4-7.1h-15.5c-4.4 3.7-9.6 6.4-15.4 7.1 1.2 2.3 2 4.8 1.9 7.4v21.1c0 3.4-.5 4.1-2.5 7l.1.1c7.1 5.5 15 8.3 23.6 10 8.3-1.5 16.9-4.9 23.6-10l.1-.1c-1.9-2.9-2.4-3.6-2.4-7zm-21.2 14.8c-7.6-1.7-14-4.1-20.6-8.3 1.5-1.8 1.7-4.5 1.7-6.6V48.5c0-2.1-.5-4.2-1.2-6.2 3.6-.2 10.9-4.2 12.9-6.3h14.4c2 2.1 9.3 6.1 12.9 6.3-.7 1.9-1.2 4.1-1.2 6.2v20.8c0 2.1.1 4.8 1.7 6.6-6.5 4.2-13.2 6.7-20.6 8.3z"/><path class="st0" d="M190.8 87.1h-62.3c-2.8.8-5.1 1.4-5.1 1.4s-2-.5-5.1-1.4H56c-.4 1.5-2.8 4.1-4.4 4.4v12.3c2 .4 3.9 2.2 4.4 4.2h134.8c.5-2 2.4-3.8 4.4-4.2V91.5c-1.6-.3-3.9-2.5-4.4-4.4zm-.4 1.1h-62.6c-2.4.8-4.2 1.3-4.2 1.3s-2.4-.5-5-1.4l-62.1.1c-.3 1.4-2.4 3.6-3.8 3.9v11c1.7.4 3.3 2 3.8 3.7h133.9c.5-1.7 2.1-3.4 3.8-3.7v-11c-1.4-.2-3.4-2.2-3.8-3.9z"/><path class="st1" d="M148 73.8c1.3-4 1-8 .9-12.2-1.1.6-.9.5-2.1.2v7.6c0 2.6.5 3.1 1.2 4.4zM156.4 59c-1.5-.9-2.7-2.4-3.8-3.7-.8.6-1.1.7-2.1.9.3.4 3.7 5.3 5.9 2.8zM153.5 60.4l-.5.3c.8 3.4 3.1 6.1 5.1 5.5-1-1.4-2-4-2.7-5.7-.7.8-1.5.2-1.9-.1zM165 50.2c0 .9-.4 1.1-1.2 1.4.6.8 5.8 5.4 7.5 2.9-2.2-1.4-4.2-2.7-6.3-4.3zM175.7 52.9c-.9-.7-5.5-2.9-7.7-4.3-.4.9-.6 1-1.4 1.4 2.8 1.9 6.7 5.5 9.1 2.9zM167.5 55.5c-1.6-.4-4.1-2.6-5-3.7-.3.5-.8 1.5-1.8 1.4 1.8 1.7 5.3 4.8 6.8 2.3zM159.4 53.3c-.3.8-1.9 1.1-1.9 1.1.6.6 5 5.4 6.5 2.8-1.5-1.1-3.2-2.5-4.6-3.9zM156.1 54.5c-.2 1-1.4 1.1-2 1.1.6.8 5.3 5.5 6.6 3.1-1.7-1.3-3.2-2.7-4.6-4.2zM148.8 56c-.3.7-1.8.7-1.9.6.3.8 3.4 5.2 5.4 3-.4-.1-3.5-3.6-3.5-3.6zM147.8 55.3l-.9-1.3v1.6c.3 0 .7-.1.9-.3zM151.3 54.8s-.5-1-1.7-2c-.6.9-1.1.8-1.8.7 1.1 1.7 2.1 2.1 3.5 1.3zM154.9 54.3c-.1-.6-1.6-1.5-2.3-2.3 0 .8-.8.9-1.6.9.6.5 2.3 2.7 3.9 1.4zM157.8 53.1c-.4-.8-1.5-1.4-2.2-2-.1.9-.7 1-1.7 1.1.8.5 2.9 2.3 3.9.9zM160.7 51.5c-.7-.2-2.1-1.4-2.6-1.8 0 0-.1.5-.4.8-.4.2-1.1.2-1.3.2.6.3 2.8 3.1 4.3.8zM163.7 50.1c0-1-1.5-1.7-2.1-2.1-.2 1.2-1.2 1.3-2.3 1.2.9.9 3.7 2.4 4.4.9zM166.9 48c-.9-.6-1.7-1.3-2.5-2-.6 1.2-1.9.6-2.3 1.2.5.3 3.7 3.4 4.8.8zM175.9 50.9c.1-.3.3-.4.5-.6.2-.2.6-.5.7-.6-1.9-.4-6.1-3.6-7.3-4.8-.7.5-1.7.9-4.1.2 3 2.4 6.5 4.9 10.2 5.8zM182.4 48.8c.4-1.5-2.1-1.3-5.8-4.1-1.5-1.3-3.2-2.8-5.3-1.6-.4.2-.3.8-.3 1.3 2.6 2.6 7.6 6.1 11.4 4.4zM178.9 50.4c4.5 4.1 10.3 8.8 16.8 8.8.7-.4.5-1 .4-1.6-4.7-1.6-9.6-4.6-13.4-7.7-3 .5-3.8.4-3.8.5z"/><path class="st1" d="M177.7 50.8l-1 .9-.1.1s0 .1.1.1c.4.5.5 1 .5 1.8 3.8 3.2 7.3 5.9 12.6 6.9.3 0 .8-.5.8-.9-5.4-2.3-9.4-5.2-12.9-8.9zM189 61.5c-1.4 0-2.3-.6-3.6-1.2 1.6 4.9 5.7 7.6 3.6 1.2zM183.5 59.5c-1.9-.8-4.4-2.6-4.4-2.7 1.2 2.4 5.2 11.3 7.9 8.4-1.5-1.5-2.5-3.9-3.5-5.7zM176.4 54.4c-.7.7-1.4.6-2.4.7 1.4 2.7 4.2 10.5 8.3 9.5-.3.1-5.2-8.7-5.9-10.2z"/><path class="st1" d="M172.8 55.1c-.7.5-1.5 1.4-2.5 1.2 1.3 2 5 10.7 8.4 8.3-.1 0-3.4-2.9-5.9-9.5z"/><path class="st1" d="M168.8 56.3c-.3.7-.9 1-1.7 1.1 2 5.5 9.6 15.4 14.8 15.9.3 0 1.7-.2 1.3-.5-3-2-10.6-8.7-14.4-16.5z"/><path class="st1" d="M165.8 57.5l-.6-.1c-.3.7-.6 1.3-1.4 1.6 4.5 10.7 10.7 14.4 12.2 12.4-4.7-3.7-8.1-8.3-10.2-13.9z"/><path class="st1" d="M162.6 59.1c-.2 0-.5-.1-.7-.2-.1 0-.2.9-1.2 1.3.8 2.4 7.1 14.7 10.7 11.7-3.9-3.3-7.3-8.1-8.8-12.8zM164.6 69.5c-.2 1.1-.7 2.8-.8 4.1 1.5.2 2.2-1 2.5-2.3l-1.7-1.8zM163.6 68.4c-1.6-2.3-3.4-5.1-4.2-7.8-.8.2-2-.2-2.6-.6.8 3.6 3.1 9.2 6.8 8.4zM161 69.1c-.5 2.5-.8 4.9-1.7 7.1 3.5.1 3.3-4.2 4-6.7-.5.2-1.4.2-2.3-.4zM159.8 68.6c0-.1-.5-.4-.9-.8-.3-.3-.4-.6-.4-.6-.2.2-1.2.1-1.4.1.4.9-1.1 10.1-1.9 10.7 3.3 1.7 3.9-6 4.6-9.4zM156.2 67.3c-1-.5-2-1.3-2.8-2.1-.1 4.2-.1 9.4-2 13.2 3.9 2.7 4.6-9 4.8-11.1z"/><path class="st1" d="M152 61c-.2.3-1.7.8-2 .5.2 4.3.5 9.4-.9 13.6.5.4 1.1.8 1.7 1.1-.9.9-1.9 1.7-2.9 2.5-.1.1-.1.2-.2.3 5.2 1.7 5.2-15.4 4.3-18zM148.7 60.7c-.6-.6-1.6-2-1.9-2.6v2.3c.3.5.9.5 1.9.3zM168.9 34.4c-3-.8-5.9-2.1-9.1-1.9-2 .2-5 1.8-5.1 4.2.5 6.1-.1 8.4-7.5 9.6-.4 2-.3 4-.3 6.1.3.1.7.2 1.2.1 1.1-.3-.3-1.2-.7-2.6.3-.1.6-.3.8-.1.2.1.6.8 1.3 1.6.6.8 2.6.5 1.8-.4-.5-.6-1.5-1.7-1.5-2.1.5-.5 1-.3 1.4.2.7.8 2 2.5 3.2 1.6.7-.3-1.3-2.5-1.6-2.8-.1-.2.4-.6.5-.5 1.1 1 2.2 2.8 3.7 1.9.5-.7-.1-1.4-1.8-2.8l.8-.6c.7.5 3.1 3.1 4.2 1.9 1.1-1.1-2.7-2.6-3-3.3l.7-.7c.4.2 4.5 3.3 5.7.6-.3-.1-1.5-.6-3.7-2-.4-.2 0-.8.3-1 7.8 4.7 9.7 2.2 9.3 1.4-1.5-.4-3.4-.6-8.1-2.9-.1-.5.2-.9.3-1.3.7.4 12 5.7 11.8 1.4-3.6-.6-7-1.3-10.1-3.4-.4-.4.1-1.2.5-1.3 3.2 1.9 7.6 3.9 11.4 2.6-.5-2.8-4-2.9-6.4-3.5zM177.9 39.5c-1.1-.5-1.9.2-3 .2.4.5 0 1.3-.2 1.8 5 3.8 4.9 3.7 7.7 4.9 1.2.5 2.6.2 3.5-.1-1.1-4.2-4.6-5.1-8-6.8zM200 55.9c-3.1-4.3-7.5-6.2-12.2-8.3-1.2.5-2.8.6-4 .5.1.4 0 .9-.3 1.2.7.6 17.7 11.7 16.5 6.6z"/><path class="st1" d="M240.5 72.9c3.2.3 5.2-2.2 4.2-3.1-.4-1-1.9-1-2.5-1-15.9-.7-30.7-4.9-40.9-11.7-.8 2.3-2.6 1.6-4 1 .3.6 0 1.1-.4 1.9 11.1 7.8 28.7 12.8 43.6 12.9z"/><path class="st1" d="M237.3 74.3c-16-.5-28.5-5.1-41.9-13.7-.5-.3-1.8-.1-3.4-.7 0 0-.8 1.3-1.4 1.4 0 0 .2 1.2.4 1.6 7.7 8.2 44.8 19.7 46.3 11.4z"/><path class="st1" d="M227.1 78.4c-13.7-1.7-25.6-6.4-36.4-13.3-.1.7-.3 3-3.1.8-.6 1-1.6.8-1.7.7 2.1 3.8 37.5 19.6 41.2 11.8z"/><path class="st1" d="M214.2 80.8c-11.7-2.8-21.9-6.9-31.5-15.2-1.6.3-2.9-.8-4.9.6 5.7 7.5 28.3 21.3 36.4 14.6z"/><path class="st1" d="M201.5 82.7c-8.4-2.5-11.2-4.9-17.2-8.6-2.7 1.7-5.4-.1-7.4-1.6-.2.1-1.4.2-1.5.6 8 6.1 17.4 11.5 26.1 9.6zM103.4 12.8zM143.6 12.8zM143.6 12.8c.4 0 .7.3.7.7 0 .4-.3.7-.7.7-.4 0-.7-.3-.7-.7 0-.4.3-.7.7-.7zM143.6 12.8zM103.4 12.8c.4 0 .7.3.7.7 0 .4-.3.7-.7.7-.4 0-.7-.3-.7-.7.1-.4.4-.7.7-.7zM103.4 12.8zM121.9 3.1v-.9h1.2V1.1h.9v1.1h1.1v.9H124v1.2h-.9V3.1h-1.2zM123.5 5.4c.8 0 1.5.7 1.5 1.5s-.7 1.5-1.5 1.5-1.5-.7-1.5-1.5.7-1.5 1.5-1.5zM117.5 21.8v-1h12v1h-12zM122.8 19.5l-2.7-10h1.5l1.9 7.4 1.9-7.4h1.5l-2.7 10h-1.4z"/><path class="st1" d="M123.5 12.7l-.6-3.2h1.2l-.6 3.2zM128.7 8.2l-3.1 11.3h1.4l3.3-11.3h-1.6zM131.4 9.3c-1 3.4-2 6.9-3 10.3 4.2-.1 6.8-3 6.9-5.8 0-2-1.2-3.9-3.9-4.5zM118.3 8.2l3.1 11.3H120l-3.3-11.3h1.6zM115.6 9.3c1 3.4 2 6.9 3 10.3-4.2-.1-6.8-3-6.9-5.8 0-2 1.2-3.9 3.9-4.5zM143.8 10.5v.5h.5v.4h-.5v.6h-.4v-.5h-.5v-.4h.5v-.5c.1-.1.2-.1.4-.1zM143.9 15l-.3 1.6-.3-1.6h.6z"/><path class="st1" d="M143.6 18.9l.9-3.9h.8l-1.3 5.3h-.8l-1.3-5.3h.8c.2 1.3.6 2.6.9 3.9zM146.6 21.1v.8h-6.1v-.8h6.1zM140.9 20.3l-1.5-5.4c-1.5 0-2.1 1.2-2.1 2.4.1 1.7 1.3 3.4 3.6 3zM140.9 14.4h-.8l1.6 5.9h.7l-1.5-5.9zM146.2 20.3l1.5-5.4c1.5 0 2.1 1.2 2.1 2.4-.1 1.7-1.3 3.4-3.6 3zM146.2 14.4h.8l-1.6 5.9h-.6l1.4-5.9zM103.7 10.5v.5h.5v.4h-.5v.6h-.4v-.5h-.5v-.4h.5v-.5c.1-.1.2-.1.4-.1zM103.7 15l-.3 1.6-.3-1.6h.6z"/><path class="st1" d="M103.4 18.9l.9-3.9h.8l-1.3 5.3h-.8l-1.3-5.3h.8c.3 1.3.7 2.6.9 3.9zM106.5 21.1v.8h-6.1v-.8h6.1zM100.8 20.3l-1.5-5.4c-1.5 0-2.2 1.2-2.1 2.5.1 1.6 1.3 3.3 3.6 2.9zM100.8 14.4h-.8l1.6 5.9h.6l-1.4-5.9zM106.1 20.3l1.5-5.4c1.5 0 2.1 1.2 2.1 2.4-.1 1.7-1.3 3.4-3.6 3zM106.1 14.4h.8l-1.6 5.9h-.7l1.5-5.9zM106.9 36.4l.4.3-.5.2.1-.5zM116.2 31.6h-1.7c-.2.3-.5.5-.7.8-.2-.2-.3-.6-.3-1.1.9-.6 1.9-.3 2.7.3zM114.3 30.1c-1.3 1.1-3.9-.5-4.2-1.2.9.1 1.2-.3 1.6-.4.9-.2 2.3.9 2.6 1.6zM110.5 34.4l.5.1c-.1 0-.4.3-.5.3v-.4zM109.6 32.7c1.6.3 2.2-.6 1.9-1.6.5.3.8.7 1.6 1.9l-1.1.8c-.5-.1-1.8-.5-2.4-1.1zM106.3 33.5c.6-.2 1.3-.7 1.3-1.5 1.5.7 2.1 3 1.1 4.1-1 .6-2.3-1.6-2.4-2.6zM104.8 28.9c1-.2 1.3-1.2 1.4-1.8.7.4 1.8 1.6 1.4 2.5-.9.5-2.1-.2-2.8-.7zM107.1 30.5c1.1 0 1.6-.7 1.3-1.7 1.7.6 2.4 2 2.2 2.9-.7.7-3-.2-3.5-1.2zM111.4 27.7c-1.2.9-2.8.8-4.8-1.3 1.8-.4 3.5.1 4.8 1.3zM111.1 23.8c-.9 1.3-2.1 1.8-3.7 1.6-2.2-.3-4.9-.5-7-.1l-.3-.6c1-2.8 8.6-.2 11-.9zM97.6 30.6c1.1 0 2.7-.4 3.2-1.1 0-.5-1-1.2-1.4-1.4-1.8-.5-3.7-.9-5.3.3-.6-2.4 3.2-3 5.3-3 .7 2.1 2.7 3.5 4 5.2-.3 0-4.9 1.2-5.8 0zM103.6 28.8c-1.4-1-1.7-1.3-2.7-2.7h.5c.4.6.8.9 1.4 1.2l1-1.2c.5 0 .9 0 1.4.1-.1 1.6-.5 1.8-1.6 2.6zM104.2 30.5c.6-.2.6-.1.8-.7l.9.7c.4.4 1 1.5.5 2.3-1.4 0-1.9-1.2-2.2-2.3zM99 73.9c-1.3-4-1-8-.9-12.3 1.1.4.9.2 2.1 0v7.8c-.1 2.3-.3 2.6-1.2 4.5zM90.6 59c1.5-.9 2.7-2.4 3.8-3.7.8.6 1.1.7 2.1.9-.3.4-3.7 5.4-5.9 2.8zM93.5 60.5l.5.3c-.8 3.4-3.1 6.1-5.1 5.5 1-1.4 2-4 2.7-5.7.7.7 1.5.1 1.9-.1zM82 50.3c0 .9.4 1.1 1.2 1.4-.6.8-5.8 5.4-7.5 2.9 2.2-1.5 4.3-2.7 6.3-4.3zM71.3 52.9c.9-.7 5.5-2.9 7.7-4.3.4.9.6 1 1.4 1.4-2.8 1.9-6.7 5.6-9.1 2.9zM79.5 55.5c1.6-.4 4.1-2.6 5-3.7.3.5.8 1.5 1.8 1.4-1.7 1.7-5.3 4.9-6.8 2.3zM87.6 53.4c.3.8 1.9 1.1 1.9 1.1-.6.6-5 5.4-6.5 2.8 1.5-1.1 3.2-2.5 4.6-3.9zM90.9 54.6c.2 1 1.4 1.1 2 1.1-.6.8-5.3 5.5-6.6 3.1 1.7-1.3 3.2-2.7 4.6-4.2zM98.3 56.1c.3.7 1.8.7 1.9.6-.3.8-3.4 5.2-5.4 3 .3-.2 3.4-3.7 3.5-3.6zM99.2 55.3l.9-1.3v1.6c-.3.1-.7 0-.9-.3zM95.7 54.9s.5-1 1.7-2c.6.9 1.1.8 1.8.7-1.1 1.7-2.1 2-3.5 1.3zM92.1 54.3c.1-.6 1.6-1.5 2.3-2.3 0 .8.8.9 1.6.9-.6.6-2.3 2.7-3.9 1.4zM89.2 53.1c.4-.8 1.5-1.4 2.2-2 .1.9.7 1 1.7 1.1-.8.5-2.9 2.3-3.9.9zM86.3 51.5c.7-.2 2.1-1.4 2.6-1.8 0 0 .1.5.4.8.4.2 1.1.2 1.3.2-.5.3-2.8 3.1-4.3.8zM83.3 50.2c0-1 1.5-1.7 2.1-2.1.2 1.2 1.2 1.3 2.3 1.2-.9.9-3.7 2.3-4.4.9zM80.1 48c.9-.6 1.7-1.3 2.5-2 .6 1.2 1.9.6 2.3 1.2-.5.3-3.7 3.5-4.8.8zM71.1 50.9c-.1-.3-.3-.4-.5-.6-.2-.2-.6-.5-.7-.6 1.9-.4 6.1-3.6 7.3-4.8.7.5 1.7.9 4.1.2-3 2.4-6.5 4.9-10.2 5.8zM64.6 48.9c-.4-1.5 2.1-1.3 5.8-4.1 1.5-1.3 3.2-2.8 5.3-1.6.3.2.3.8.3 1.2-2.6 2.7-7.6 6.1-11.4 4.5zM68.2 50.4c-4.5 4.1-10.3 8.8-16.8 8.8-.7-.4-.5-1-.4-1.6 4.7-1.6 9.6-4.6 13.4-7.7 2.9.6 3.8.5 3.8.5z"/><path class="st1" d="M69.3 50.8l1 .9.1.1s0 .1-.1.1c-.4.5-.5 1-.5 1.8-3.8 3.2-7.3 5.9-12.6 6.9-.3 0-.8-.5-.8-.9 5.4-2.2 9.4-5.1 12.9-8.9zM58.1 61.5c1.4 0 2.3-.6 3.6-1.2-1.6 5-5.7 7.7-3.6 1.2zM63.5 59.5c1.9-.8 4.4-2.6 4.4-2.7-1.2 2.4-5.2 11.3-7.9 8.4 1.5-1.5 2.5-3.9 3.5-5.7zM70.6 54.4c.7.7 1.4.6 2.4.7-1.4 2.7-4.2 10.5-8.3 9.5.3.1 5.3-8.7 5.9-10.2z"/><path class="st1" d="M74.2 55.1c.7.5 1.5 1.4 2.5 1.2-1.3 2-5 10.7-8.4 8.3.1 0 3.5-2.8 5.9-9.5z"/><path class="st1" d="M78.2 56.3c.3.7.9 1 1.7 1.1-2 5.5-9.6 15.4-14.8 15.9-.3 0-1.7-.2-1.3-.5 3-2 10.6-8.6 14.4-16.5z"/><path class="st1" d="M81.2 57.5l.6-.1c.3.7.6 1.3 1.4 1.6C78.7 69.7 72.5 73.4 71 71.4c4.7-3.7 8.1-8.3 10.2-13.9z"/><path class="st1" d="M84.5 59.1c.2 0 .5-.1.7-.2.1 0 .2.9 1.2 1.3-.8 2.4-7.1 14.7-10.7 11.7 3.8-3.3 7.2-8 8.8-12.8zM82.4 69.5c.2 1.1.7 2.8.8 4.1-1.5.2-2.2-1-2.5-2.3l1.7-1.8zM83.4 68.4c1.6-2.3 3.4-5.1 4.2-7.8.8.2 2-.2 2.6-.6-.8 3.7-3.1 9.2-6.8 8.4zM86 69.2c.5 2.5.8 4.9 1.7 7.1-3.5.1-3.3-4.2-4-6.7.5.1 1.4.1 2.3-.4zM87.2 68.7c0-.1.5-.4.9-.8.3-.3.4-.6.4-.6.2.2 1.2.1 1.4.1-.4.9 1.1 10.1 1.9 10.7-3.3 1.6-3.9-6.1-4.6-9.4zM90.8 67.4c1-.5 2-1.3 2.8-2.1.1 4.2.1 9.4 2 13.2-3.9 2.6-4.6-9.1-4.8-11.1z"/><path class="st1" d="M95.1 61.1c.2.3 1.7.8 2 .5-.2 4.3-.5 9.4.9 13.6-.5.4-1.1.8-1.7 1.1.9.9 1.9 1.7 2.9 2.5.1.1.1.2.2.3-5.3 1.6-5.2-15.4-4.3-18zM98.3 60.8c.6-.6 1.6-2 1.9-2.6v2.3c-.3.5-.9.4-1.9.3zM78.2 34.4c3-.8 5.9-2.1 9.1-1.9 2 .2 5 1.8 5.1 4.2-.5 6.1.1 8.4 7.5 9.6.4 2 .3 4 .3 6.1-.3.1-.7.2-1.2.1-1.1-.3.3-1.2.7-2.6-.3-.1-.6-.3-.8-.1-.2.1-.6.8-1.3 1.6-.6.8-2.6.5-1.8-.4.5-.6 1.5-1.7 1.5-2.1-.5-.5-1-.3-1.4.2-.7.8-2 2.5-3.2 1.6-.7-.3 1.3-2.5 1.6-2.8.1-.2-.4-.6-.5-.5-1.1 1-2.2 2.8-3.7 1.9-.5-.7.1-1.4 1.8-2.8l-.8-.6c-.7.5-3.1 3.1-4.2 1.9-1.1-1.1 2.7-2.6 3-3.3l-.7-.7c-.4.2-4.5 3.3-5.7.6.3-.1 1.5-.6 3.7-2 .4-.2 0-.8-.3-1-7.8 4.7-9.7 2.2-9.3 1.4 1.5-.4 3.4-.6 8.1-2.9.1-.5-.2-.9-.3-1.3-.7.4-12 5.7-11.8 1.4 3.5-.6 7-1.3 10.1-3.4.4-.4-.1-1.2-.5-1.3-3.2 1.9-7.6 3.9-11.4 2.6.5-2.8 3.9-2.8 6.4-3.5zM69.1 39.5c1.1-.5 1.9.2 3 .2-.4.5 0 1.3.2 1.8-5 3.8-4.9 3.7-7.7 4.9-1.2.5-2.6.2-3.5-.1 1.1-4.2 4.6-5 8-6.8zM47 56c3.1-4.3 7.5-6.2 12.2-8.3 1.2.5 2.8.6 4 .5-.1.4 0 .9.3 1.2-.7.5-17.7 11.7-16.5 6.6z"/><path class="st1" d="M6.5 72.9c-3.2.3-5.2-2.2-4.2-3.1.4-1 1.9-1 2.5-1 15.9-.7 30.7-4.9 40.9-11.7.8 2.3 2.6 1.6 4 1-.3.6 0 1.1.4 1.9C39 67.8 21.4 72.9 6.5 72.9z"/><path class="st1" d="M9.7 74.4c16-.5 28.5-5.1 41.9-13.7.5-.3 1.8-.1 3.4-.7 0 0 .8 1.3 1.4 1.4 0 0-.2 1.2-.4 1.6-7.6 8.1-44.8 19.7-46.3 11.4z"/><path class="st1" d="M20 78.5c13.7-1.7 25.6-6.4 36.4-13.3.1.7.3 3 3.1.8.6 1 1.6.8 1.7.7C59 70.5 23.6 86.2 20 78.5z"/><path class="st1" d="M32.8 80.8c11.7-2.8 21.9-6.9 31.5-15.2 1.6.3 2.9-.8 4.9.6-5.7 7.5-28.2 21.3-36.4 14.6z"/><path class="st1" d="M45.5 82.7c8.4-2.5 11.2-4.9 17.2-8.6 2.7 1.7 5.4-.1 7.4-1.6.2.1 1.4.2 1.5.6-8 6.1-17.4 11.6-26.1 9.6zM140.2 36.4l-.5.3.5.2v-.5zM130.8 31.6h1.7c.2.3.5.5.7.8.2-.2.3-.6.3-1.1-.9-.6-1.8-.3-2.7.3zM132.7 30.1c1.3 1.1 3.9-.5 4.2-1.2-.9.1-1.2-.3-1.6-.4-.8-.2-2.2.9-2.6 1.6zM136.6 34.4l-.5.1c.1 0 .4.3.5.3 0-.1-.1-.2 0-.4zM137.4 32.7c-1.6.3-2.2-.6-1.9-1.6-.5.3-.8.7-1.6 1.9l1.1.8c.6-.1 1.8-.5 2.4-1.1zM140.8 33.5c-.6-.2-1.3-.7-1.3-1.5-1.5.7-2.1 3-1.1 4.1 1 .6 2.2-1.6 2.4-2.6zM142.3 28.9c-1-.2-1.3-1.2-1.4-1.8-.7.4-1.8 1.6-1.4 2.5.9.5 2-.2 2.8-.7zM139.9 30.5c-1.1 0-1.6-.7-1.3-1.7-1.7.6-2.4 2-2.2 2.9.7.7 3.1-.2 3.5-1.2zM135.6 27.7c1.2.9 2.8.8 4.8-1.3-1.8-.4-3.5.1-4.8 1.3zM136 23.8c.9 1.3 2.1 1.8 3.7 1.6 2.2-.3 4.9-.5 7-.1l.3-.6c-1-2.8-8.6-.2-11-.9zM149.5 30.6c-1.1 0-2.7-.4-3.2-1.1 0-.5 1-1.2 1.4-1.4 1.8-.5 3.7-.9 5.3.3.6-2.4-3.2-3-5.3-3-.7 2.1-2.7 3.5-4 5.2.2 0 4.8 1.2 5.8 0zM143.4 28.8c1.4-1 1.7-1.3 2.7-2.7h-.5c-.4.6-.8.9-1.4 1.2l-1-1.2c-.5 0-.9 0-1.4.1.1 1.6.6 1.8 1.6 2.6zM142.9 30.5c-.6-.2-.6-.1-.8-.7l-.9.7c-.4.4-1 1.5-.5 2.3 1.3 0 1.8-1.2 2.2-2.3z"/><path class="st0" d="M185.7 92.4h-2.5l-1.3 4.3h-.6l-1.3-4.3h-2.5l1.9 5.4-2 5.5h2.5l1.4-4.3h.6l1.4 4.3h2.5l-2-5.5 1.9-5.4zm-14.8 11l-.2-2.6H168l-.2 2.6h-2.3l1.1-10.9h5.8l1.1 10.9h-2.6zm-2.4-8.6l-.3 3.7h2.3l-.3-3.7h-1.7zm-7.1 5.3h-5v3.3h-2.3v-11h7.3v7.7zm-2.3-5.3h-2.7v3h2.7v-3zm-9.3 0h-2.5v8.6H145v-8.6h-2.5v-2.3h7.3v2.3zm-11.3 1.1h-2.3v-1.1H134v6.3h2.2V100h2.3v3.4h-6.9v-11h6.9v3.5zm-11.8 0h-2.3v-1.1h-2.2v6.3h2.2V100h2.3v3.4h-6.9v-11h6.9v3.5zm-11.5 7.5h-7.3v-11h7.3v11zm-2.3-8.6h-2.7v6.3h2.7v-6.3zm-8.9 0h-3.8v8.6h-2.3v-11h6.2v2.4h-.1zm-11 1.1h-2.3v-1.1h-2.2v6.3h2.2V100H93v3.4h-6.9v-11H93v3.5zm-12 7.5h-7.3v-11H81v11zm-2.3-8.6H76v6.3h2.7v-6.3zm-9.7 5.3h-5v3.3h-2.3v-11H69v7.7zm-2.4-5.3H64v3h2.7v-3h-.1z"/><path class="st2" d="M123.6 84.2c-7.6-1.7-14-4.1-20.6-8.3 1.6-1.8 1.7-4.5 1.7-6.6V48.5c0-2.1-.5-4.2-1.2-6.2 3.6-.2 10.9-4.2 12.9-6.3h14.4c2 2.1 9.3 6.1 12.9 6.3-.7 1.9-1.2 4.1-1.2 6.2v20.8c0 2.1.1 4.8 1.7 6.6-6.5 4.2-13.2 6.7-20.6 8.3z"/><path class="st1" d="M114.9 44.1v31.5h4.5V61H132V44.1h-17.1zm17.1 25v-2.2h-6.6v8.7h6.6v-2.2h-4.3v-4.2h4.3v-.1zm-8.1-3.7h8.1v-2.9h-11.1v13.1h3V65.4zm3.7-9h-8.3v-8h8.3v8z"/></svg>