<svg id="Слой_1" xmlns="http://www.w3.org/2000/svg" viewBox="0 0 56 40"><style>.st0{fill:#FFFFFF;}</style><path class="st0" d="M11 .6v36.6h7.9v2.2H0v-2.2h8.7V3.1L0 6.4V4.2L9.4.6H11zM40.7 0c8.9 0 13.8 5.1 13.8 10.1.1 4.5-2.3 8.3-6.4 10.6C52.5 22.4 56 25 56 30c0 5.1-4.8 10-15.1 10-10.2 0-15.3-5.1-15.3-11.1 0-4.4 2.6-8.7 7.5-11.1-3.5-1.7-6.1-4.2-6.1-8.3C27 4.8 31.1 0 40.7 0zm-5.5 18.7c-4.7 2-7.3 5.9-7.3 10 0 5.2 4.3 9.1 13 9.1 8.2 0 12.8-3.7 12.8-7.9 0-6.2-6.3-7.6-12.7-9.5-2-.3-4-.9-5.8-1.7zm5.5-16.6c-7.8 0-11.4 3.5-11.4 7.4 0 6.1 6.6 7.6 11.5 9 1.7.5 3.5 1 5.3 1.5 3.8-2.1 6.2-5.5 6.2-9.5 0-4.2-4-8.4-11.6-8.4z"/></svg>