<svg id="Слой_1" xmlns="http://www.w3.org/2000/svg" viewBox="0 0 60 60"><style>.st0{fill:#FFFFFF;}</style><path class="st0" d="M1.9 30c0-7.5 2.9-14.5 8.2-19.8C15.5 4.9 22.5 1.9 30 1.9c7.6 0 14.8 3 20 8.4h-3.5c-.5 0-1 .4-1 1 0 .5.4 1 1 1h6.2c.5 0 1-.4 1-1V5.1c0-.5-.4-1-1-1-.5 0-1 .4-1 1v4.3C46.2 3.4 38.3 0 30 0 22 0 14.5 3.1 8.8 8.8S0 22 0 30c0 5.3 1.4 10.5 4 15 .2.3.5.5.8.5.2 0 .3 0 .5-.1.5-.3.7-.9.4-1.4-2.5-4.2-3.8-9.1-3.8-14zM56 15c-.3-.5-.9-.6-1.3-.4-.5.3-.6.9-.4 1.3 2.5 4.2 3.8 9.1 3.8 14 0 7.5-2.9 14.5-8.2 19.8s-12.3 8.2-19.8 8.2c-7.6 0-14.8-3-20-8.4h3.5c.5 0 1-.4 1-1 0-.5-.4-1-1-1H7.2c-.5 0-1 .4-1 1v6.2c0 .5.4 1 1 1 .5 0 1-.4 1-1v-4.3c5.7 6 13.5 9.4 21.8 9.4 8 0 15.5-3.1 21.2-8.8 5.7-5.5 8.8-13 8.8-21 0-5.3-1.4-10.5-4-15z"/><path class="st0" d="M30 8.3C18 8.3 8.3 18 8.3 30S18 51.7 30 51.7 51.7 42 51.7 30 42 8.3 30 8.3zm1 41.4v-2.1c0-.5-.4-1-1-1-.5 0-1 .4-1 1v2.1c-10.1-.5-18.2-8.6-18.7-18.7h2.1c.5 0 1-.4 1-1 0-.5-.4-1-1-1h-2.1c.5-10.1 8.6-18.3 18.8-18.8v2.1c0 .5.4 1 1 1 .5 0 1-.4 1-1v-2.1c10.1.5 18.3 8.6 18.8 18.8h-2.1c-.5 0-1 .4-1 1 0 .5.4 1 1 1h2.1c-.7 10.1-8.8 18.2-18.9 18.7z"/><path class="st0" d="M42.4 29H34c-.1-.4-.3-.8-.5-1.1l9.1-9.1c.4-.4.4-1 0-1.4s-1-.4-1.4 0l-9.1 9.1c-.6-.4-1.3-.6-2.1-.6-1.9 0-3.5 1.3-4 3.1h-2.3c-.5 0-1 .4-1 1 0 .5.4 1 1 1H26c.1.4.3.8.5 1.1l-2.4 2.4c-.4.4-.4 1 0 1.4.2.2.4.3.7.3.2 0 .5-.1.7-.3l2.4-2.4c.6.4 1.3.6 2.1.6 1.9 0 3.5-1.3 4-3.1h8.5c.5 0 1-.4 1-1-.1-.5-.5-1-1.1-1zM30 32.1c-1.2 0-2.1-1-2.1-2.1 0-1.2 1-2.1 2.1-2.1 1.2 0 2.1 1 2.1 2.1 0 1.2-.9 2.1-2.1 2.1z"/></svg>