<svg id="Слой_1" xmlns="http://www.w3.org/2000/svg" viewBox="0 0 62 62"><style>.st0{fill:#FFFFFF;}</style><path class="st0" d="M41.7 0C30.5 0 21.4 9.1 21.4 20.3c0 5.2 2 10 5.3 13.6l-4.2 4.2c-.7-.4-1.4-.6-2.2-.6-1.1 0-2.2.4-3 1.2L1.2 54.8c-.8.8-1.2 1.9-1.2 3s.4 2.2 1.2 3 1.9 1.2 3 1.2 2.2-.4 3-1.2l16.1-16.1c.8-.8 1.2-1.9 1.2-3 0-.8-.2-1.5-.6-2.2l4.2-4.2c3.6 3.3 8.4 5.3 13.6 5.3 11.2 0 20.3-9.1 20.3-20.3C62 9.1 52.9 0 41.7 0zM5.8 59.3c-.4.4-1 .6-1.6.6s-1.1-.2-1.6-.6c-.4-.4-.6-1-.6-1.6s.2-1.1.6-1.6l14.3-14.3 3.1 3.1L5.8 59.3zm16-16l-.4.4-3.1-3.1.4-.4c.4-.4 1-.6 1.6-.6s1.1.2 1.6.6c.4.4.6 1 .6 1.6 0 .5-.2 1.1-.7 1.5zm19.9-4.7c-10.1 0-18.3-8.2-18.3-18.3C23.4 10.2 31.6 2 41.7 2S60 10.2 60 20.3s-8.2 18.3-18.3 18.3z"/><path class="st0" d="M41.7 4.3c-8.8 0-16 7.2-16 16s7.2 16 16 16 16-7.2 16-16-7.2-16-16-16zm1 29.9V32c0-.6-.4-1-1-1s-1 .4-1 1v2.2c-6.9-.5-12.5-6-13-13h2.2c.6 0 1-.4 1-1s-.4-1-1-1h-2.2c.5-6.9 6-12.5 13-13v2.2c0 .6.4 1 1 1s1-.4 1-1V6.3c6.9.5 12.5 6 13 13h-2.1c-.6 0-1 .4-1 1s.4 1 1 1h2.1c-.5 6.9-6.1 12.5-13 12.9z"/><path class="st0" d="M49.9 13.5c.4-.4.4-1 0-1.4s-1-.4-1.4 0l-5.4 5.4c-.4-.2-.9-.3-1.4-.3-1.4 0-2.6.9-3 2.1h-1.3c-.6 0-1 .4-1 1s.4 1 1 1h1.3c0 .1.1.3.2.4l-1.8 1.8c-.4.4-.4 1 0 1.4.2.2.5.3.7.3.3 0 .5-.1.7-.3l1.8-1.8c.4.2.9.3 1.4.3 1.4 0 2.6-.9 3-2.1h4.5c.6 0 1-.4 1-1s-.4-1-1-1h-4.5c0-.1-.1-.3-.2-.4l5.4-5.4zm-8.2 7.9c-.6 0-1.1-.5-1.1-1.1s.5-1.1 1.1-1.1 1.1.5 1.1 1.1c.1.6-.5 1.1-1.1 1.1z"/></svg>