<svg id="Слой_1" xmlns="http://www.w3.org/2000/svg" viewBox="0 0 184 240"><style>.st0{fill:#FFFFFF;}</style><path class="st0" d="M92 66c-13.7 0-24.8 11.2-24.8 24.9s11.1 24.9 24.8 24.9c13.7 0 24.8-11.2 24.8-24.9S105.7 66 92 66zm0 0"/><path class="st0" d="M92 0C41.3 0 0 41.3 0 92.1c0 21.5 7.4 41.3 19.8 57L92 240l72.2-90.9c12.4-15.7 19.8-35.5 19.8-57C184 41.3 142.7 0 92 0zm0 132.3c-22.8 0-41.4-18.6-41.4-41.5C50.6 68 69.2 49.4 92 49.4c22.8 0 41.4 18.6 41.4 41.5 0 22.8-18.6 41.4-41.4 41.4zm0 0"/></svg>