<svg id="Слой_1" xmlns="http://www.w3.org/2000/svg" xmlns:xlink="http://www.w3.org/1999/xlink" viewBox="0 0 53 48"><style>.st0{clip-path:url(#SVGID_2_);fill:#FFFFFF;} .st1{fill:#FFFFFF;}</style><defs><path id="SVGID_1_" d="M0 0h53v48H0z"/></defs><clipPath id="SVGID_2_"><use xlink:href="#SVGID_1_" overflow="visible"/></clipPath><path class="st0" d="M52.3 1.4c-.1-.3-.3-.6-.7-.7-.1 0-3.4-.7-7.6-.7-.5 0-.8.4-.8.9s.4.9.8.9c3.1 0 5.7.4 6.8.6.5 2.8 2.1 15.1-3.9 21.2-2.3 2.3-5.3 3.6-8.5 3.6s-6.2-1.3-8.5-3.6c-2.1-2.1-4.8-2.1-6.9 0-2.3 2.3-5.3 3.6-8.5 3.6S8.3 25.9 6 23.6C0 17.5 1.7 5.2 2.1 2.4c2.9-.6 15-2.3 21 3.8 2.1 2.1 4.8 2.1 6.9 0 2.4-2.4 6-3.9 10.7-4.4.5 0 .8-.5.8-.9 0-.5-.5-.8-.9-.8-5.2.6-9.2 2.2-11.9 4.9-1.4 1.4-3.1 1.4-4.5 0-3.1-3.1-8-4.9-14.3-5-4.6-.1-8.4.7-8.5.7-.4.1-.6.4-.7.7 0 .2-.8 4-.7 8.7.1 5.2 1.3 9.6 3.4 12.7v22.5c0 1.4 1.1 2.6 2.5 2.6s2.5-1.2 2.5-2.6v-18c1.9 1 4 1.5 6.1 1.5 3.7 0 7.1-1.4 9.7-4.1 1.4-1.4 3.1-1.4 4.5 0 2.6 2.6 6 4.1 9.7 4.1s7.1-1.4 9.7-4.1c3.1-3.1 4.8-8.2 4.9-14.6.1-4.7-.7-8.5-.7-8.7zM5.9 46.2c-.5 0-.8-.4-.8-.9V24.9c.5.5 1.1 1 1.7 1.4v19.1c0 .5-.4.8-.9.8z"/><path class="st1" d="M32.2 14.3c-.3.3-.3.8 0 1.2 1.8 2.1 4.4 3.2 7.1 3.2s5.3-1.2 7.1-3.2c.3-.3.3-.8 0-1.2-1.8-2.1-4.4-3.2-7.1-3.2s-5.3 1.2-7.1 3.2zm7.1 2.7c-2 0-3.8-.7-5.3-2.1 1.4-1.3 3.3-2.1 5.3-2.1s3.8.7 5.3 2.1c-1.4 1.3-3.3 2.1-5.3 2.1zm-25.6-5.9c-2.7 0-5.3 1.2-7.1 3.2-.3.3-.3.8 0 1.2 1.8 2.1 4.4 3.2 7.1 3.2s5.3-1.2 7.1-3.2c.3-.3.3-.8 0-1.2-1.8-2-4.4-3.2-7.1-3.2zm0 5.9c-2 0-3.8-.7-5.3-2.1 1.4-1.3 3.3-2.1 5.3-2.1s3.8.7 5.3 2.1c-1.5 1.3-3.4 2.1-5.3 2.1z"/></svg>