<svg id="Слой_1" xmlns="http://www.w3.org/2000/svg" xmlns:xlink="http://www.w3.org/1999/xlink" viewBox="0 0 57 63"><style>.st0{clip-path:url(#SVGID_2_);fill:#FFFFFF;} .st1{fill:#FFFFFF;}</style><defs><path id="SVGID_1_" d="M0 0h57v62.5H0z"/></defs><clipPath id="SVGID_2_"><use xlink:href="#SVGID_1_" overflow="visible"/></clipPath><path class="st0" d="M56.6 41.6c-.4-1.2-1.4-2.1-2.6-2.6-1.2-.4-2.5-.3-3.6.4l-10.5 6.3-1.4.6h-7.6c-.1 0-.1-.1-.2-.1 0 0-.1-.1 0-.2l.1-.1 5.8-2.1c2.2-.7 3.5-3 2.9-5.2-.3-1.1-1.1-2.1-2.1-2.6s-2.2-.6-3.3-.3l-5.9 2-15.6 1c-1 .1-2 .5-2.7 1.2l-8.5 8.5c-1.6 1.6-1.8 4.2-.3 5.9.4.4 2 2 4.5 4.3C7 60 8.4 61.3 9 61.9c.2.2.5.3.7.3s.5-.1.6-.2l4.7-3.9c1-.8 2.2-1.3 3.5-1.3h16c.6 0 1.1-.1 1.7-.3l7.5-3.2h.1l.4-.2h.1L55 46.7c1.5-1 2.3-3.2 1.6-5.1zM53.7 45L43 51.4l-.3.2-7.5 3.2c-.3.1-.6.2-.9.2h-16c-1.7 0-3.4.6-4.8 1.7l-4 3.3c-.7-.7-1.7-1.7-2.8-2.7-1.8-1.7-4-3.8-4.3-4.2-.7-.9-.6-2.3.2-3.1l8.5-8.5c.4-.4.9-.6 1.4-.6l15.7-1h.3l6.1-2c.2-.1.5-.1.7-.1.4 0 .7.1 1 .3.5.3.9.8 1.1 1.4.3 1.1-.4 2.3-1.6 2.7L30 44.3c-.5.2-1 .6-1.2 1.1-.3.7-.3 1.5.1 2.2s1.1 1 1.9 1h7.8c.1 0 .3 0 .4-.1l1.7-.7s.1 0 .1-.1l10.6-6.3c.6-.3 1.3-.4 1.9-.2.6.2 1.1.7 1.4 1.4.4.7-.1 1.9-1 2.4z"/><path class="st1" d="M36.5 32.2c8.9 0 16.1-7.2 16.1-16.1S45.4 0 36.5 0s-16 7.3-16 16.1c0 8.9 7.2 16.1 16 16.1zm0-30.1c7.8 0 14.1 6.3 14.1 14.1s-6.3 14.1-14.1 14.1S22.4 24 22.4 16.2c.1-7.8 6.4-14.1 14.1-14.1z"/><path class="st1" d="M31.1 19.9c0-.6-.5-1-1-1-.6 0-1 .5-1 1 0 2 1.7 3.6 4.3 4.3v.5c0 .6.5 1 1 1 .6 0 1-.5 1-1v-.1c.4 0 .8.1 1.1.1.4 0 .8 0 1.1-.1v.1c0 .6.5 1 1 1 .6 0 1-.5 1-1v-.5c2.6-.7 4.3-2.4 4.3-4.3 0-2-1.7-3.6-4.3-4.3v-5.4c1.4.5 2.3 1.4 2.3 2.2 0 .6.5 1 1 1 .6 0 1-.5 1-1 0-2-1.7-3.6-4.3-4.3v-.6c0-.6-.5-1-1-1-.6 0-1 .5-1 1v.1c-.4 0-.8-.1-1.1-.1-.4 0-.8 0-1.1.1v-.1c0-.6-.5-1-1-1-.6 0-1 .5-1 1V8c-2.6.7-4.3 2.4-4.3 4.3 0 2 1.7 3.6 4.3 4.3V22c-1.5-.4-2.3-1.3-2.3-2.1zm8.6-2.2c1.4.5 2.3 1.4 2.3 2.2 0 .8-.9 1.7-2.3 2.2v-4.4zm-4.3-8c.4 0 .7-.1 1.1-.1s.8 0 1.1.1v5.5c-.4 0-.8-.1-1.1-.1-.4 0-.8 0-1.1-.1V9.7zm0 7.4c.4 0 .8.1 1.1.1.4 0 .8 0 1.1.1v5.4c-.4 0-.7.1-1.1.1s-.8 0-1.1-.1v-5.6zm-4.3-4.7c0-.8.9-1.7 2.3-2.2v4.4c-1.5-.5-2.3-1.4-2.3-2.2z"/></svg>