<svg id="Слой_1" xmlns="http://www.w3.org/2000/svg" viewBox="0 0 64 58"><style>.st0{fill:#FFFFFF;}</style><path class="st0" d="M62.9 43.8h-1.1c0-4.8-3.8-8.8-8.5-8.8h-7.8l-5-11.4c-.2-.4-.6-.6-1-.6H9.6c-.6 0-1.1.5-1.1 1.1V35H6.4c-.6 0-1.1.5-1.1 1.1v7.7H1.1c-.6 0-1.1.5-1.1 1.1v6.6c0 .6.5 1.1 1.1 1.1h6.5c.5 3.1 3.1 5.5 6.3 5.5s5.8-2.4 6.3-5.5h23.7c.5 3.1 3.1 5.5 6.3 5.5s5.8-2.4 6.3-5.5H63c.6 0 1.1-.5 1.1-1.1v-6.6c-.1-.6-.6-1.1-1.2-1.1zM19.2 25.2h19.6l4.4 9.9h-24v-9.9zm-8.5 0h6.4V35h-6.4v-9.8zm3.2 30.6c-2.4 0-4.3-2-4.3-4.4s1.9-4.4 4.3-4.4 4.3 2 4.3 4.4c-.1 2.4-2 4.4-4.3 4.4zm36.2 0c-2.4 0-4.3-2-4.3-4.4s1.9-4.4 4.3-4.4 4.3 2 4.3 4.4-1.9 4.4-4.3 4.4zm11.8-5.5h-5.4v-.1c-.1-.3-.1-.7-.2-1 0-.1 0-.1-.1-.2-.1-.3-.3-.6-.4-.9 0 0 0-.1-.1-.1l-.6-.9c-.2-.3-.5-.5-.7-.7l-.1-.1c-.2-.2-.5-.4-.8-.6l-.1-.1c-.3-.2-.6-.3-.9-.4-.1 0-.1 0-.2-.1-.3-.1-.6-.2-1-.3h-.1c-.4-.1-.7-.1-1.1-.1-.4 0-.7 0-1.1.1h-.1c-.3.1-.6.2-1 .3-.1 0-.1 0-.2.1-.3.1-.6.3-.9.4l-.1.1c-.3.2-.5.4-.8.6 0 0-.1 0-.1.1-.3.2-.5.5-.7.7l-.6.9s0 .1-.1.1c-.2.3-.3.6-.4.9 0 .1 0 .1-.1.2-.1.3-.2.6-.2 1v.1H20.2v-.1c-.1-.3-.1-.7-.2-1 0-.1 0-.1-.1-.2-.1-.3-.3-.6-.4-.9 0 0 0-.1-.1-.1l-.6-.9c-.2-.3-.5-.5-.7-.7l-.1-.1c-.2-.2-.5-.4-.8-.6l-.1-.1c-.3-.2-.6-.3-.9-.4-.1 0-.1 0-.2-.1-.3-.1-.6-.2-1-.3h-.1c-.4-.1-.7-.1-1.1-.1-.4 0-.7 0-1.1.1h-.1c-.3.1-.6.2-1 .3-.1 0-.1 0-.2.1-.3.1-.6.3-.9.4l-.1.1c-.3.2-.5.4-.8.6 0 0-.1 0-.1.1-.1.3-.3.6-.5.8l-.6.9s0 .1-.1.1c-.2.3-.3.6-.4.9 0 .1 0 .1-.1.2-.1.3-.2.6-.3 1v.1H2.1V46h4.3c.6 0 1.1-.5 1.1-1.1v-7.7h45.8c3.5 0 6.4 2.9 6.4 6.6 0 .3 0 .6-.1.9 0 .3 0 .6.2.9.2.2.5.4.8.4h1.1v4.3h.2z"/><path class="st0" d="M52.3 51.4c0 1.2-1 2.2-2.1 2.2-1.2 0-2.1-1-2.1-2.2s1-2.2 2.1-2.2 2.1 1 2.1 2.2zm-36.3 0c0 1.2-1 2.2-2.1 2.2-1.2 0-2.1-1-2.1-2.2s1-2.2 2.1-2.2 2.1 1 2.1 2.2zm35.2-27.3c6.5 0 11.7-5.4 11.7-12S57.6.1 51.2.1c-6.5 0-11.7 5.4-11.7 12s5.2 12 11.7 12zm0-21.9c5.3 0 9.6 4.4 9.6 9.8s-4.3 9.8-9.6 9.8-9.6-4.4-9.6-9.8 4.3-9.8 9.6-9.8z"/><path class="st0" d="M49.1 13.1h5.3c.6 0 1.1-.5 1.1-1.1V7.7c0-.6-.5-1.1-1.1-1.1h-7.5v11H49l.1-4.5zm0-4.3h4.3V11h-4.3V8.8z"/></svg>