<svg id="Слой_1" xmlns="http://www.w3.org/2000/svg" xmlns:xlink="http://www.w3.org/1999/xlink" viewBox="0 0 24 41"><style>.st0{clip-path:url(#SVGID_2_);}</style><defs><path id="SVGID_1_" d="M0 0h24v41H0z"/></defs><clipPath id="SVGID_2_"><use xlink:href="#SVGID_1_" overflow="visible"/></clipPath><path class="st0" d="M20.1 0H3C1.3 0 0 1.3 0 3v35.1c0 1.7 1.3 3 3 3h17.1c1.6 0 3-1.3 3-3V3c-.1-1.7-1.4-3-3-3zM7.3 1.8h8.4c.2 0 .4.3.4.7 0 .4-.2.7-.4.7H7.3c-.2 0-.4-.3-.4-.7 0-.4.2-.7.4-.7zm4.2 36.4c-1 0-1.9-.9-1.9-1.9 0-1.1.9-1.9 1.9-1.9 1 0 1.9.9 1.9 1.9 0 1-.8 1.9-1.9 1.9zm9.3-6.6H2.2V5.1h18.6v26.5zm0 0"/></svg>