<svg xmlns="http://www.w3.org/2000/svg" viewBox="0 0 39 39"><path d="M37.4 22.3c.1-.9.2-1.9.2-2.8 0-10-8.1-18.1-18.1-18.1-1 0-1.9.1-2.8.2C15 .6 13 0 10.9 0 4.9 0 0 4.9 0 10.9c0 2.1.6 4.1 1.6 5.8-.1.9-.2 1.9-.2 2.8 0 10 8.1 18.1 18.1 18.1 1 0 1.9-.1 2.8-.2 1.7 1 3.6 1.6 5.7 1.6 6 0 10.9-4.9 10.9-10.9.1-2.1-.5-4.1-1.5-5.8zm-9.3 5.4c-.8 1.1-1.9 2-3.4 2.6-1.5.6-3.2.9-5.2.9-2.4 0-4.4-.4-6-1.3-1.1-.6-2-1.4-2.7-2.4-.7-1-1.1-2-1.1-3 0-.6.2-1.1.6-1.5.4-.4 1-.6 1.6-.6.5 0 1 .2 1.4.5.4.3.7.8.9 1.4.3.7.6 1.3 1 1.8s.8.9 1.5 1.2c.6.3 1.5.5 2.5.5 1.4 0 2.6-.3 3.5-.9.9-.6 1.3-1.4 1.3-2.3 0-.7-.2-1.3-.7-1.8-.5-.5-1.1-.8-1.9-1-.8-.2-1.8-.5-3.1-.8-1.8-.4-3.2-.8-4.4-1.3-1.2-.5-2.1-1.2-2.8-2.1-.7-.9-1.1-2-1.1-3.3 0-1.3.4-2.4 1.1-3.4.7-1 1.8-1.7 3.2-2.3 1.4-.5 3-.8 4.9-.8 1.5 0 2.8.2 3.9.5s2 .8 2.7 1.4c.7.6 1.3 1.2 1.6 1.8.3.6.5 1.3.5 1.9 0 .6-.2 1.1-.6 1.5-.4.5-1 .7-1.6.7-.6 0-1-.1-1.3-.4-.3-.3-.6-.7-1-1.3-.4-.8-1-1.5-1.6-2-.6-.5-1.6-.7-2.9-.7-1.3 0-2.3.3-3 .8-.8.5-1.1 1.1-1.1 1.8 0 .4.1.8.4 1.1.3.3.6.6 1.1.8.5.2.9.4 1.4.5.5.1 1.3.3 2.4.6 1.4.3 2.6.6 3.7 1s2.1.8 2.9 1.3c.8.5 1.4 1.2 1.9 2 .4.8.7 1.8.7 2.9-.1 1.4-.4 2.6-1.2 3.7zm0 0"/></svg>