<svg id="Слой_1" xmlns="http://www.w3.org/2000/svg" xmlns:xlink="http://www.w3.org/1999/xlink" viewBox="0 0 22 23"><style>.st0{clip-path:url(#SVGID_2_);fill:#FFFFFF;} .st1{fill:#FFFFFF;}</style><defs><path id="SVGID_1_" d="M0 0h22v22.7H0z"/></defs><clipPath id="SVGID_2_"><use xlink:href="#SVGID_1_" overflow="visible"/></clipPath><path class="st0" d="M19 9.5c0-3.2-2.7-6.1-6-6.5h-.2c-.2 0-.3-.1-.5-.1-.7 0-.9.5-.9.8 0 .3 0 .5.1.7.2.3.6.4 1 .4h.3c3 .7 4 1.7 4.5 4.7v.3c0 .4.1 1.1.9 1.1h.2c.7-.1.7-.8.7-1.1-.1-.1-.1-.2-.1-.3zm0 0"/><path class="st0" d="M12.1 1.8h.2c5 .8 7.2 3.1 7.9 8.1v.3c0 .4 0 1.2.9 1.2.3 0 .5-.1.6-.2.3-.3.3-.7.2-1V10C22 4.9 17.5.3 12.4.1h-.1H12c.1-.1 0-.1 0-.1-.8 0-1 .6-1 .9-.1.9.7.9 1.1.9zm0 0M19.9 16.4c-.1-.1-.2-.2-.3-.2-.5-.4-1.1-.8-1.7-1.2-.1-.1-.2-.2-.3-.2-.7-.5-1.4-.7-2-.7-.8 0-1.5.5-2.1 1.3-.3.4-.6.6-1 .6-.2 0-.5-.1-.8-.2-2.3-1-3.9-2.6-4.9-4.8-.5-1-.3-1.7.5-2.2.5-.3 1.3-.9 1.2-2-.1-1.2-2.8-5-4-5.4-.5-.2-1-.2-1.5 0C1.8 1.7.8 2.5.3 3.6c-.5 1-.4 2.2.1 3.4 1.4 3.6 3.5 6.7 6.1 9.2 2.5 2.5 5.6 4.6 9.2 6.1.3.1.7.2.9.3H16.9c1.7 0 3.7-1.5 4.3-3.3.5-1.5-.5-2.3-1.3-2.9zm0 0"/><path class="st1" d="M12.8 5.9c-.3 0-.9 0-1.1.6-.1.3-.1.5 0 .7.2.3.5.4.8.4 1.1.2 1.7.8 1.8 2 .1.5.4.9.9.9h.1c.6-.1.8-.5.8-1.2 0-.8-.4-1.7-1.1-2.4-.6-.6-1.4-1-2.2-1zm0 0"/></svg>