<svg id="Слой_1" xmlns="http://www.w3.org/2000/svg" xmlns:xlink="http://www.w3.org/1999/xlink" viewBox="0 0 21 21"><style>.st0{clip-path:url(#SVGID_2_);fill:#FFFFFF;}</style><defs><path id="SVGID_1_" d="M0 0h21v21H0z"/></defs><clipPath id="SVGID_2_"><use xlink:href="#SVGID_1_" overflow="visible"/></clipPath><path class="st0" d="M10.7 0C5 0 .4 4.6.4 10.3c0 1.8.5 3.6 1.4 5.1L0 20.5c0 .1 0 .3.1.4.1.1.2.1.3.1h.1L6 19.5c1.4.7 3.1 1.1 4.7 1.1C16.4 20.6 21 16 21 10.3 21 4.6 16.4 0 10.7 0zm6.4 15l-.6.6c-.8.8-1.6 1.2-2.6 1.2-1.3 0-2.6-.7-4-2.1l-3.6-3.6c-1.1-1.1-1.8-2.2-2-3.2-.3-1.3.1-2.4 1.1-3.4l.6-.6c.4-.4 1-.5 1.5-.2.9.5 1.9 2.1 2 2.3.2.3.3.7.2 1-.1.2-.2.3-.4.5-.3.2-.6.5-.7.6-.4.5-.3.9.1 1.4l2.8 2.8c.5.5.9.5 1.4.1.1-.1.4-.4.6-.7.2-.3.5-.5.8-.5.2 0 .5.1.7.2.2.1 1.8 1.1 2.3 2 .3.6.2 1.2-.2 1.6zm0 0"/></svg>